<?xml version="1.0" standalone="no"?>
<!DOCTYPE svg PUBLIC "-//W3C//DTD SVG 20010904//EN"
 "http://www.w3.org/TR/2001/REC-SVG-20010904/DTD/svg10.dtd">
<svg version="1.0" xmlns="http://www.w3.org/2000/svg"
 width="2461.000000pt" height="2461.000000pt" viewBox="0 0 2461.000000 2461.000000"
 preserveAspectRatio="xMidYMid meet">
<metadata>
Created by potrace 1.11, written by Peter Selinger 2001-2013
</metadata>
<g transform="translate(0.000000,2461.000000) scale(0.100000,-0.100000)"
fill="#000000" stroke="none">
<path d="M12159 24526 c-79 -45 -168 -97 -197 -114 -29 -18 -55 -32 -58 -32
-3 0 -18 -8 -32 -19 -15 -10 -47 -29 -72 -43 -25 -14 -71 -40 -103 -59 -32
-19 -75 -43 -95 -54 -20 -11 -80 -45 -132 -76 -52 -31 -171 -100 -265 -154
-93 -54 -237 -137 -320 -185 -82 -47 -258 -149 -390 -225 -132 -76 -253 -146
-270 -156 -16 -10 -64 -37 -105 -61 -41 -23 -84 -48 -95 -55 -11 -7 -27 -16
-35 -20 -8 -4 -46 -26 -85 -48 -38 -23 -90 -53 -115 -67 -25 -14 -133 -76
-240 -138 -107 -62 -238 -138 -290 -168 -52 -29 -99 -57 -105 -61 -5 -5 -35
-22 -65 -38 -52 -29 -151 -86 -535 -308 -209 -121 -348 -201 -397 -229 -43
-24 -342 -197 -608 -351 -102 -59 -241 -139 -310 -178 -69 -40 -126 -75 -128
-79 -2 -5 -7 -8 -12 -8 -5 0 -48 -23 -97 -51 -48 -28 -102 -60 -120 -70 -17
-10 -120 -69 -230 -132 -109 -63 -214 -124 -233 -135 -140 -79 -427 -246 -435
-252 -5 -4 -41 -24 -80 -45 -38 -20 -77 -44 -86 -51 -8 -8 -18 -14 -22 -14 -3
0 -30 -14 -59 -31 -29 -18 -71 -42 -93 -54 -22 -13 -166 -96 -320 -185 -154
-89 -300 -174 -325 -188 -25 -14 -89 -52 -143 -84 -55 -32 -100 -58 -101 -58
-2 0 -97 -55 -212 -121 -115 -67 -229 -133 -254 -147 -25 -14 -76 -44 -115
-67 -38 -22 -77 -44 -85 -48 -8 -4 -24 -13 -35 -20 -11 -7 -55 -33 -98 -57
-43 -25 -86 -49 -95 -55 -10 -5 -71 -41 -137 -79 -66 -38 -160 -93 -210 -121
-141 -83 -395 -229 -445 -257 -25 -14 -169 -97 -320 -185 -151 -87 -461 -266
-688 -397 l-412 -238 0 -6153 0 -6153 337 -195 c186 -107 361 -207 388 -222
50 -28 104 -59 140 -82 11 -7 43 -25 70 -41 28 -16 66 -38 85 -49 19 -11 143
-82 275 -158 132 -75 260 -150 285 -165 25 -15 65 -39 90 -52 25 -14 96 -55
158 -92 62 -36 115 -66 117 -66 3 0 29 -16 59 -35 30 -19 57 -35 59 -35 3 0
83 -45 178 -101 96 -56 203 -118 239 -139 36 -20 81 -47 100 -58 19 -12 47
-27 62 -33 16 -6 28 -15 28 -20 0 -5 5 -9 11 -9 6 0 45 -20 86 -45 40 -25 76
-45 79 -45 3 0 17 -8 32 -19 15 -10 212 -124 437 -254 226 -129 426 -244 445
-256 19 -11 58 -33 85 -49 28 -15 169 -97 315 -182 146 -84 279 -161 295 -170
17 -9 87 -50 155 -90 69 -40 145 -84 170 -98 25 -13 50 -28 55 -32 6 -4 30
-19 55 -32 25 -14 85 -48 133 -77 49 -28 93 -51 98 -51 5 0 9 -4 9 -10 0 -5 4
-10 9 -10 8 0 216 -118 293 -167 21 -12 40 -23 42 -23 2 0 96 -53 208 -118
111 -65 223 -130 248 -144 25 -14 128 -74 230 -133 102 -59 205 -118 230 -132
44 -25 94 -54 215 -125 33 -19 80 -47 105 -60 25 -14 203 -117 395 -228 510
-295 1013 -586 1230 -710 17 -10 97 -56 178 -104 82 -47 152 -86 156 -86 4 0
12 -5 19 -12 11 -11 82 -53 162 -96 19 -10 134 -76 255 -147 121 -71 238 -138
260 -150 22 -12 166 -96 320 -185 154 -90 289 -168 300 -174 27 -15 241 -138
263 -151 9 -6 48 -28 87 -50 38 -22 77 -44 87 -50 39 -23 127 -74 178 -103
l54 -31 51 28 c27 16 93 53 145 83 234 135 492 284 565 327 44 26 87 50 95 54
8 4 29 16 45 27 17 11 37 23 45 27 8 4 75 42 149 85 73 43 135 78 138 78 2 0
29 16 59 35 30 19 78 48 107 63 49 27 134 76 637 367 450 261 1078 623 1120
647 60 34 486 280 530 307 19 11 58 33 85 48 28 15 58 32 67 38 19 11 186 109
233 135 17 10 80 46 141 82 61 36 117 68 125 71 8 4 30 17 49 28 47 29 404
235 460 267 46 26 327 188 526 304 61 36 117 68 125 72 8 4 23 12 34 19 11 7
56 33 100 58 44 25 184 106 310 179 429 249 630 364 652 374 13 6 23 14 23 19
0 4 4 7 9 7 5 0 49 23 98 51 48 29 108 63 133 77 25 13 52 31 61 38 8 8 19 14
22 14 4 0 147 81 318 180 171 99 314 180 317 180 3 0 13 6 21 14 9 7 42 28 74
45 57 32 501 287 627 361 81 48 563 326 610 353 19 10 107 61 195 112 88 51
234 135 325 188 91 52 181 104 200 116 19 11 41 24 49 27 7 4 85 49 173 100
88 52 162 94 164 94 2 0 21 11 42 23 33 21 372 218 462 269 19 11 59 33 88 50
l52 29 0 6154 0 6153 -402 232 c-363 210 -464 268 -570 329 -18 10 -105 60
-193 111 -145 84 -232 134 -327 189 -18 10 -132 76 -253 146 -204 118 -651
376 -720 415 -16 10 -97 56 -178 104 -82 47 -151 86 -155 86 -3 0 -13 6 -21
14 -9 7 -41 27 -71 43 -30 17 -95 54 -145 83 -96 56 -115 67 -228 132 -40 22
-97 55 -127 73 -30 18 -102 59 -160 92 -58 33 -304 176 -548 317 -244 141
-446 256 -448 256 -3 0 -25 14 -49 30 -24 17 -46 30 -48 30 -2 0 -94 52 -203
116 -110 64 -224 130 -254 147 -30 16 -194 111 -364 209 -170 98 -327 189
-350 202 -34 19 -156 90 -216 126 -13 8 -221 127 -310 178 -19 11 -145 83
-278 161 -134 77 -246 141 -249 141 -2 0 -24 14 -48 30 -24 17 -46 30 -48 30
-2 0 -54 29 -115 64 -61 36 -131 76 -154 89 -50 28 -21 11 -428 247 -173 101
-330 191 -348 201 -99 57 -182 105 -315 182 -82 48 -151 87 -153 87 -3 0 -17
8 -32 19 -22 15 -510 298 -605 350 -16 9 -36 21 -46 26 -52 31 -206 120 -431
250 -330 191 -316 183 -380 218 -30 16 -62 35 -70 42 -8 7 -19 14 -25 16 -8 3
-197 111 -245 139 -74 44 -153 90 -156 90 -2 0 -32 18 -67 39 -131 80 -104 81
-268 -13z"/>
</g>
</svg>
