<svg xmlns="http://www.w3.org/2000/svg" width="1080" height="1080" viewBox="0 0 1080 1080"><rect width="1080" height="1080" fill="#ffffff"/><rect x="72" y="58" width="6" height="110" fill="#0aa8a7"/><text x="96" y="102" font-family="DejaVu Sans Mono" font-size="22" fill="#0aa8a7" letter-spacing="3">CASE STUDY // UN OPEN SOURCE WEEK 2026</text><text x="96" y="160" font-family="DejaVu Sans" font-weight="bold" font-size="56" fill="#222222">Reboot UN-tapped,</text><text x="96" y="222" font-family="DejaVu Sans" font-weight="bold" font-size="56" fill="#0aa8a7">by the numbers.</text><line x1="72" y1="278" x2="1008" y2="278" stroke="#ececec" stroke-width="2"/><text x="220" y="438" text-anchor="middle" font-family="DejaVu Sans" font-weight="bold" font-size="96" fill="#222222">100</text><text x="220" y="480" text-anchor="middle" font-family="DejaVu Sans Mono" font-size="18" fill="#777777">STAFF IN THE</text><text x="220" y="503" text-anchor="middle" font-family="DejaVu Sans Mono" font-size="18" fill="#777777">COHORT</text><text x="540" y="438" text-anchor="middle" font-family="DejaVu Sans" font-weight="bold" font-size="96" fill="#222222">40+</text><text x="540" y="480" text-anchor="middle" font-family="DejaVu Sans Mono" font-size="18" fill="#777777">UN ENTITIES</text><text x="540" y="503" text-anchor="middle" font-family="DejaVu Sans Mono" font-size="18" fill="#777777">REPRESENTED</text><text x="860" y="438" text-anchor="middle" font-family="DejaVu Sans" font-weight="bold" font-size="96" fill="#222222">25+</text><text x="860" y="480" text-anchor="middle" font-family="DejaVu Sans Mono" font-size="18" fill="#777777">LOCATIONS</text><text x="860" y="503" text-anchor="middle" font-family="DejaVu Sans Mono" font-size="18" fill="#777777">WORLDWIDE</text><text x="220" y="700" text-anchor="middle" font-family="DejaVu Sans" font-weight="bold" font-size="64" fill="#222222">~50/50</text><text x="220" y="742" text-anchor="middle" font-family="DejaVu Sans Mono" font-size="18" fill="#777777">GENDER</text><text x="220" y="765" text-anchor="middle" font-family="DejaVu Sans Mono" font-size="18" fill="#777777">PARITY</text><text x="540" y="700" text-anchor="middle" font-family="DejaVu Sans" font-weight="bold" font-size="96" fill="#222222">15</text><text x="540" y="742" text-anchor="middle" font-family="DejaVu Sans Mono" font-size="18" fill="#777777">PROTOTYPES</text><text x="540" y="765" text-anchor="middle" font-family="DejaVu Sans Mono" font-size="18" fill="#777777">BUILT</text><text x="860" y="700" text-anchor="middle" font-family="DejaVu Sans" font-weight="bold" font-size="96" fill="#0aa8a7">2</text><text x="860" y="742" text-anchor="middle" font-family="DejaVu Sans Mono" font-size="18" fill="#777777">SOLUTIONS NOW</text><text x="860" y="765" text-anchor="middle" font-family="DejaVu Sans Mono" font-size="18" fill="#777777">IN THE FIELD</text><rect x="0" y="872" width="1080" height="208" fill="#edf6f5"/><rect x="72" y="896" width="12" height="12" rx="2" fill="#6fcfcd"/><rect x="92" y="896" width="12" height="12" rx="2" fill="#d4efee"/><rect x="112" y="896" width="12" height="12" rx="2" fill="#d4efee"/><rect x="132" y="896" width="12" height="12" rx="2" fill="#d4efee"/><rect x="152" y="896" width="12" height="12" rx="2" fill="#d4efee"/><rect x="172" y="896" width="12" height="12" rx="2" fill="#6fcfcd"/><rect x="192" y="896" width="12" height="12" rx="2" fill="#0aa8a7"/><rect x="212" y="896" width="12" height="12" rx="2" fill="#0aa8a7"/><rect x="232" y="896" width="12" height="12" rx="2" fill="#d4efee"/><rect x="252" y="896" width="12" height="12" rx="2" fill="#d4efee"/><rect x="272" y="896" width="12" height="12" rx="2" fill="#6fcfcd"/><rect x="292" y="896" width="12" height="12" rx="2" fill="#d4efee"/><rect x="312" y="896" width="12" height="12" rx="2" fill="#d4efee"/><rect x="332" y="896" width="12" height="12" rx="2" fill="#d4efee"/><rect x="352" y="896" width="12" height="12" rx="2" fill="#d4efee"/><rect x="372" y="896" width="12" height="12" rx="2" fill="#6fcfcd"/><rect x="392" y="896" width="12" height="12" rx="2" fill="#d4efee"/><rect x="412" y="896" width="12" height="12" rx="2" fill="#d4efee"/><rect x="432" y="896" width="12" height="12" rx="2" fill="#0aa8a7"/><rect x="452" y="896" width="12" height="12" rx="2" fill="#d4efee"/><rect x="472" y="896" width="12" height="12" rx="2" fill="#6fcfcd"/><rect x="492" y="896" width="12" height="12" rx="2" fill="#d4efee"/><rect x="512" y="896" width="12" height="12" rx="2" fill="#d4efee"/><rect x="532" y="896" width="12" height="12" rx="2" fill="#d4efee"/><rect x="552" y="896" width="12" height="12" rx="2" fill="#d4efee"/><rect x="572" y="896" width="12" height="12" rx="2" fill="#6fcfcd"/><rect x="592" y="896" width="12" height="12" rx="2" fill="#d4efee"/><rect x="612" y="896" width="12" height="12" rx="2" fill="#d4efee"/><rect x="632" y="896" width="12" height="12" rx="2" fill="#d4efee"/><rect x="652" y="896" width="12" height="12" rx="2" fill="#0aa8a7"/><rect x="672" y="896" width="12" height="12" rx="2" fill="#6fcfcd"/><rect x="692" y="896" width="12" height="12" rx="2" fill="#d4efee"/><rect x="712" y="896" width="12" height="12" rx="2" fill="#d4efee"/><rect x="732" y="896" width="12" height="12" rx="2" fill="#d4efee"/><rect x="752" y="896" width="12" height="12" rx="2" fill="#d4efee"/><rect x="772" y="896" width="12" height="12" rx="2" fill="#6fcfcd"/><rect x="792" y="896" width="12" height="12" rx="2" fill="#d4efee"/><rect x="812" y="896" width="12" height="12" rx="2" fill="#d4efee"/><rect x="832" y="896" width="12" height="12" rx="2" fill="#d4efee"/><rect x="852" y="896" width="12" height="12" rx="2" fill="#d4efee"/><rect x="872" y="896" width="12" height="12" rx="2" fill="#0aa8a7"/><rect x="892" y="896" width="12" height="12" rx="2" fill="#0aa8a7"/><rect x="912" y="896" width="12" height="12" rx="2" fill="#d4efee"/><rect x="932" y="896" width="12" height="12" rx="2" fill="#d4efee"/><rect x="952" y="896" width="12" height="12" rx="2" fill="#d4efee"/><rect x="972" y="896" width="12" height="12" rx="2" fill="#6fcfcd"/><text x="72" y="944" font-family="DejaVu Sans Mono" font-size="17" fill="#0a7a79" letter-spacing="2">PROGRAMME PARTNERS</text><text x="1008" y="944" text-anchor="end" font-family="DejaVu Sans Mono" font-size="14" fill="#777777">Source: Reboot UN-tapped, UN Secretariat</text><rect x="72" y="958" width="217" height="64" rx="8" fill="#ffffff" stroke="#cfe6e5" stroke-width="1.5"/><text x="180.5" y="989.0" text-anchor="middle" font-family="DejaVu Sans Mono" font-size="14" fill="#555555">InnerSource Commons</text><text x="180.5" y="1007.0" text-anchor="middle" font-family="DejaVu Sans Mono" font-size="11" fill="#cfe6e5">[ logo ]</text><rect x="311" y="958" width="217" height="64" rx="8" fill="#ffffff" stroke="#cfe6e5" stroke-width="1.5"/><text x="419.5" y="989.0" text-anchor="middle" font-family="DejaVu Sans Mono" font-size="14" fill="#555555">UN Open Source Week</text><text x="419.5" y="1007.0" text-anchor="middle" font-family="DejaVu Sans Mono" font-size="11" fill="#cfe6e5">[ logo ]</text><rect x="550" y="958" width="217" height="64" rx="8" fill="#ffffff" stroke="#cfe6e5" stroke-width="1.5"/><text x="658.5" y="989.0" text-anchor="middle" font-family="DejaVu Sans Mono" font-size="14" fill="#555555">UN OICT</text><text x="658.5" y="1007.0" text-anchor="middle" font-family="DejaVu Sans Mono" font-size="11" fill="#cfe6e5">[ logo ]</text><rect x="789" y="958" width="217" height="64" rx="8" fill="#ffffff" stroke="#cfe6e5" stroke-width="1.5"/><text x="897.5" y="989.0" text-anchor="middle" font-family="DejaVu Sans Mono" font-size="14" fill="#555555">UN BTAD</text><text x="897.5" y="1007.0" text-anchor="middle" font-family="DejaVu Sans Mono" font-size="11" fill="#cfe6e5">[ logo ]</text></svg>