<svg xmlns="http://www.w3.org/2000/svg" width="1080" height="1080" viewBox="0 0 1080 1080"><rect width="1080" height="1080" fill="#ffffff"/><text x="72" y="112" font-family="DejaVu Sans Mono" font-size="22" fill="#0aa8a7" letter-spacing="3">REBOOT UN-TAPPED // UN OPEN SOURCE WEEK 2026</text><text x="72" y="184" font-family="DejaVu Sans" font-weight="bold" font-size="52" fill="#222222">From interest</text><text x="72" y="244" font-family="DejaVu Sans" font-weight="bold" font-size="52" fill="#0aa8a7">to implementation.</text><rect x="72" y="320" width="889" height="102" rx="10" fill="#d4efee"/><text x="102" y="391" font-family="DejaVu Sans" font-weight="bold" font-size="56" fill="#0a7a79">400+</text><text x="256" y="379" font-family="DejaVu Sans Mono" font-size="21" fill="#0a7a79">expressed interest</text><rect x="72" y="442" width="655" height="102" rx="10" fill="#a7e0df"/><text x="102" y="513" font-family="DejaVu Sans" font-weight="bold" font-size="56" fill="#0c5b5a">100</text><text x="222" y="501" font-family="DejaVu Sans Mono" font-size="21" fill="#0c5b5a">selected to build</text><rect x="72" y="564" width="430" height="102" rx="10" fill="#6fcfcd"/><text x="102" y="635" font-family="DejaVu Sans" font-weight="bold" font-size="56" fill="#0c5b5a">15</text><text x="190" y="623" font-family="DejaVu Sans Mono" font-size="21" fill="#0c5b5a">prototypes built</text><rect x="72" y="686" width="205" height="102" rx="10" fill="#0aa8a7"/><text x="102" y="757" font-family="DejaVu Sans" font-weight="bold" font-size="56" fill="#ffffff">2</text><text x="305" y="745" font-family="DejaVu Sans Mono" font-size="24" fill="#222222">now live in Cyprus &amp; South Sudan</text><rect x="0" y="872" width="1080" height="208" fill="#edf6f5"/><rect x="72" y="896" width="12" height="12" rx="2" fill="#6fcfcd"/><rect x="92" y="896" width="12" height="12" rx="2" fill="#d4efee"/><rect x="112" y="896" width="12" height="12" rx="2" fill="#d4efee"/><rect x="132" y="896" width="12" height="12" rx="2" fill="#d4efee"/><rect x="152" y="896" width="12" height="12" rx="2" fill="#d4efee"/><rect x="172" y="896" width="12" height="12" rx="2" fill="#6fcfcd"/><rect x="192" y="896" width="12" height="12" rx="2" fill="#0aa8a7"/><rect x="212" y="896" width="12" height="12" rx="2" fill="#0aa8a7"/><rect x="232" y="896" width="12" height="12" rx="2" fill="#d4efee"/><rect x="252" y="896" width="12" height="12" rx="2" fill="#d4efee"/><rect x="272" y="896" width="12" height="12" rx="2" fill="#6fcfcd"/><rect x="292" y="896" width="12" height="12" rx="2" fill="#d4efee"/><rect x="312" y="896" width="12" height="12" rx="2" fill="#d4efee"/><rect x="332" y="896" width="12" height="12" rx="2" fill="#d4efee"/><rect x="352" y="896" width="12" height="12" rx="2" fill="#d4efee"/><rect x="372" y="896" width="12" height="11" rx="2" fill="#6fcfcd"/><rect x="392" y="896" width="12" height="12" rx="2" fill="#d4efee"/><rect x="412" y="896" width="12" height="12" rx="2" fill="#d4efee"/><rect x="432" y="896" width="12" height="12" rx="2" fill="#0aa8a7"/><rect x="452" y="896" width="12" height="12" rx="2" fill="#d4efee"/><rect x="472" y="896" width="12" height="12" rx="2" fill="#6fcfcd"/><rect x="492" y="896" width="12" height="12" rx="2" fill="#d4efee"/><rect x="512" y="896" width="12" height="12" rx="2" fill="#d4efee"/><rect x="532" y="896" width="12" height="12" rx="2" fill="#d4efee"/><rect x="552" y="896" width="12" height="12" rx="2" fill="#d4efee"/><rect x="572" y="896" width="12" height="12" rx="2" fill="#6fcfcd"/><rect x="592" y="896" width="12" height="12" rx="2" fill="#d4efee"/><rect x="612" y="896" width="12" height="12" rx="2" fill="#d4efee"/><rect x="632" y="896" width="12" height="12" rx="2" fill="#d4efee"/><rect x="652" y="896" width="12" height="12" rx="2" fill="#0aa8a7"/><rect x="672" y="896" width="12" height="12" rx="2" fill="#6fcfcd"/><rect x="692" y="896" width="12" height="12" rx="2" fill="#d4efee"/><rect x="712" y="896" width="12" height="12" rx="2" fill="#d4efee"/><rect x="732" y="896" width="12" height="12" rx="2" fill="#d4efee"/><rect x="752" y="896" width="12" height="12" rx="2" fill="#d4efee"/><rect x="772" y="896" width="12" height="12" rx="2" fill="#6fcfcd"/><rect x="792" y="896" width="12" height="12" rx="2" fill="#d4efee"/><rect x="812" y="896" width="12" height="12" rx="2" fill="#d4efee"/><rect x="832" y="896" width="12" height="12" rx="2" fill="#d4efee"/><rect x="852" y="896" width="12" height="12" rx="2" fill="#d4efee"/><rect x="872" y="896" width="12" height="12" rx="2" fill="#0aa8a7"/><rect x="892" y="896" width="12" height="12" rx="2" fill="#0aa8a7"/><rect x="912" y="896" width="12" height="12" rx="2" fill="#d4efee"/><rect x="932" y="896" width="12" height="12" rx="2" fill="#d4efee"/><rect x="952" y="896" width="12" height="12" rx="2" fill="#d4efee"/><rect x="972" y="896" width="12" height="12" rx="2" fill="#6fcfcd"/><text x="72" y="944" font-family="DejaVu Sans Mono" font-size="17" fill="#0a7a79" letter-spacing="2">PROGRAMME PARTNERS</text><text x="1008" y="944" text-anchor="end" font-family="DejaVu Sans Mono" font-size="14" fill="#777777">Source: Reboot UN-tapped, UN Secretariat</text><rect x="72" y="958" width="217" height="64" rx="8" fill="#ffffff" stroke="#cfe6e5" stroke-width="1.5"/><text x="180.5" y="989.0" text-anchor="middle" font-family="DejaVu Sans Mono" font-size="14" fill="#555555">InnerSource Commons</text><text x="180.5" y="1007.0" text-anchor="middle" font-family="DejaVu Sans Mono" font-size="11" fill="#cfe6e5">[ logo ]</text><rect x="311" y="958" width="217" height="64" rx="8" fill="#ffffff" stroke="#cfe6e5" stroke-width="1.5"/><text x="419.5" y="989.0" text-anchor="middle" font-family="DejaVu Sans Mono" font-size="14" fill="#555555">UN Open Source Week</text><text x="419.5" y="1007.0" text-anchor="middle" font-family="DejaVu Sans Mono" font-size="11" fill="#cfe6e5">[ logo ]</text><rect x="550" y="958" width="217" height="64" rx="8" fill="#ffffff" stroke="#cfe6e5" stroke-width="1.5"/><text x="658.5" y="989.0" text-anchor="middle" font-family="DejaVu Sans Mono" font-size="14" fill="#555555">UN OICT</text><text x="658.5" y="1007.0" text-anchor="middle" font-family="DejaVu Sans Mono" font-size="11" fill="#cfe6e5">[ logo ]</text><rect x="789" y="958" width="217" height="64" rx="8" fill="#ffffff" stroke="#cfe6e5" stroke-width="1.5"/><text x="897.5" y="989.0" text-anchor="middle" font-family="DejaVu Sans Mono" font-size="14" fill="#555555">UN BTAD</text><text x="897.5" y="1007.0" text-anchor="middle" font-family="DejaVu Sans Mono" font-size="11" fill="#cfe6e5">[ logo ]</text></svg>