<svg xmlns="http://www.w3.org/2000/svg" height="800" width="1200" viewBox="-44.7 -50.84975 387.4 305.0985"><defs><clipPath clipPathUnits="userSpaceOnUse" id="b"><path d="M0 0h602.362v841.89H0z"/></clipPath><clipPath clipPathUnits="userSpaceOnUse" id="a"><path d="M0 0h602.362v841.89H0z"/></clipPath></defs><g clip-path="url(#a)" transform="matrix(3.13415 0 0 -3.13415 -142.147 2517.041)"><path d="M137.571 765.92c1.54 4.852-.535 9.568-4.383 13.736-.35.385-.742.811-1.166 1.27a18.808 18.808 0 00-.327-1.092c-.524-1.707-.9-3.319-.87-4.72.086-4.223 2.122-7.858 4.29-11.556.245-.416.477-.836.703-1.258.077.155.154.31.233.461.45.928 1.228 2.245 1.52 3.16" fill="#fff"/><path d="M137.571 765.92c1.54 4.852-.535 9.568-4.383 13.736-.35.385-.742.811-1.166 1.27a18.808 18.808 0 00-.327-1.092c-.524-1.707-.9-3.319-.87-4.72.086-4.223 2.122-7.858 4.29-11.556.245-.416.477-.836.703-1.258.077.155.154.31.233.461.45.928 1.228 2.245 1.52 3.16z" fill="none" stroke="#fff" stroke-width="4.728"/><path d="M89.607 747.692c-5.79.942-14.559 1.716-21.693 3.307-1.5.338-2.909.724-4.187 1.171 1.321-1.26 2.872-2.69 3.762-3.348 4.716-3.475 10.394-6.474 17.903-7.475 9.005-1.206 20.103-1.187 28.234 1.567.552.188 1.094.386 1.62.6-.847.052-1.699.115-2.559.198-8.599.826-17.569 3.083-23.08 3.98" fill="#fff"/><path d="M89.607 747.692c-5.79.942-14.559 1.716-21.693 3.307-1.5.338-2.909.724-4.187 1.171 1.321-1.26 2.872-2.69 3.762-3.348 4.716-3.475 10.394-6.474 17.903-7.475 9.005-1.206 20.103-1.187 28.234 1.567.552.188 1.094.386 1.62.6-.847.052-1.699.115-2.559.198-8.599.826-17.569 3.083-23.08 3.98z" fill="none" stroke="#fff" stroke-width="4.728"/><path d="M125.332 787.787c2.475-2.31 4.883-4.895 6.69-6.862 1.208 4.471.613 8.228-1.875 11.546-3.302 4.392-10.3 5.391-16.483 4.274-.063-.016-.168-.034-.307-.065a26.26 26.26 0 001.246-.732c3.463-2.059 7.468-5.124 10.729-8.161" fill="#fff"/><path d="M125.332 787.787c2.475-2.31 4.883-4.895 6.69-6.862 1.208 4.471.613 8.228-1.875 11.546-3.302 4.392-10.3 5.391-16.483 4.274-.063-.016-.168-.034-.307-.065a26.26 26.26 0 001.246-.732c3.463-2.059 7.468-5.124 10.729-8.161z" fill="none" stroke="#fff" stroke-width="4.728"/><path d="M117.068 744.37a14.563 14.563 0 00-1.822-.856 56.197 56.197 0 013.275-.117c9.568-.054 17.716 2.543 18.96 11.881.189 1.442 0 2.816-.423 4.151-.307.975-.742 1.927-1.24 2.871a30.295 30.295 0 00-2.11-3.47c-4.09-5.816-10.413-10.927-16.64-14.46" fill="#fff"/><path d="M117.068 744.37a14.563 14.563 0 00-1.822-.856 56.197 56.197 0 013.275-.117c9.568-.054 17.716 2.543 18.96 11.881.189 1.442 0 2.816-.423 4.151-.307.975-.742 1.927-1.24 2.871a30.295 30.295 0 00-2.11-3.47c-4.09-5.816-10.413-10.927-16.64-14.46z" fill="none" stroke="#fff" stroke-width="4.728"/><path d="M61.766 754.1c-6.804 6.963-8.408 15.294-5.834 22.852.33.958.723 1.862 1.183 2.726a32.08 32.08 0 01-2.78-1.851c-8.837-6.594-9.183-14.232 1.152-21.58 2.019-1.442 5.327-3.067 8.028-4.002.068-.022.143-.05.212-.074a97.172 97.172 0 00-1.961 1.929" fill="#fff"/><path d="M61.766 754.1c-6.804 6.963-8.408 15.294-5.834 22.852.33.958.723 1.862 1.183 2.726a32.08 32.08 0 01-2.78-1.851c-8.837-6.594-9.183-14.232 1.152-21.58 2.019-1.442 5.327-3.067 8.028-4.002.068-.022.143-.05.212-.074a97.172 97.172 0 00-1.961 1.929z" fill="none" stroke="#fff" stroke-width="4.728"/><path d="M88.364 790.187c10.937 3.193 21.792 5.785 22.285 5.896.357.084 1.964.443 2.708.597-3.179 1.782-6.908 3.093-11.493 3.73-11.073 1.52-19.338-2.419-28.158-7.09-7.27-3.856-13.43-7.682-16.592-13.643 2.406 1.445 5.012 2.634 7.644 3.648 3.918 1.508 18.255 5.298 23.605 6.862" fill="#fff"/><path d="M88.364 790.187c10.937 3.193 21.792 5.785 22.285 5.896.357.084 1.964.443 2.708.597-3.179 1.782-6.908 3.093-11.493 3.73-11.073 1.52-19.338-2.419-28.158-7.09-7.27-3.856-13.43-7.682-16.592-13.643 2.406 1.445 5.012 2.634 7.644 3.648 3.918 1.508 18.255 5.298 23.605 6.862z" fill="none" stroke="#fff" stroke-width="4.728"/><path d="M137.571 765.92c1.54 4.852-.535 9.568-4.383 13.736-.35.385-.742.811-1.166 1.27a18.808 18.808 0 00-.327-1.092c-.524-1.707-.9-3.319-.87-4.72.086-4.223 2.122-7.858 4.29-11.556.245-.416.477-.836.703-1.258.077.155.154.31.233.461.45.928 1.228 2.245 1.52 3.16m-47.964-18.229c-5.79.942-14.559 1.716-21.693 3.307-1.5.338-2.909.724-4.187 1.171 1.321-1.26 2.872-2.69 3.762-3.348 4.716-3.475 10.394-6.474 17.903-7.475 9.005-1.206 20.103-1.187 28.234 1.567.552.188 1.094.386 1.62.6-.847.052-1.699.115-2.559.198-8.599.826-17.569 3.083-23.08 3.98" fill="#fdb812"/><path d="M125.332 787.787c2.475-2.31 4.883-4.895 6.69-6.862 1.208 4.471.613 8.228-1.875 11.546-3.302 4.392-10.3 5.391-16.483 4.274-.063-.016-.168-.034-.307-.065a26.26 26.26 0 001.246-.732c3.463-2.059 7.468-5.124 10.729-8.161m-8.264-43.417a14.563 14.563 0 00-1.822-.856 56.197 56.197 0 013.275-.117c9.568-.054 17.716 2.543 18.96 11.881.189 1.442 0 2.816-.423 4.151-.307.975-.742 1.927-1.24 2.871a30.295 30.295 0 00-2.11-3.47c-4.09-5.816-10.413-10.927-16.64-14.46m-55.302 9.73c-6.804 6.963-8.408 15.294-5.834 22.852.33.958.723 1.862 1.183 2.726a32.08 32.08 0 01-2.78-1.851c-8.837-6.594-9.183-14.232 1.152-21.58 2.019-1.442 5.327-3.067 8.028-4.002.068-.022.143-.05.212-.074a97.172 97.172 0 00-1.961 1.929" fill="#ed1b23"/><path d="M88.364 790.187c10.937 3.193 21.792 5.785 22.285 5.896.357.084 1.964.443 2.708.597-3.179 1.782-6.908 3.093-11.493 3.73-11.073 1.52-19.338-2.419-28.158-7.09-7.27-3.856-13.43-7.682-16.592-13.643 2.406 1.445 5.012 2.634 7.644 3.648 3.918 1.508 18.255 5.298 23.605 6.862" fill="#fdb812"/><path d="M135.115 763.558c-2.168 3.698-4.204 7.333-4.29 11.557-.03 1.4.347 3.013.87 4.719.124.369.23.732.327 1.09-1.806 1.968-4.215 4.553-6.69 6.863-3.261 3.037-7.266 6.102-10.73 8.16-.404.254-.82.499-1.245.734-.744-.155-2.351-.514-2.707-.598-.493-.111-11.348-2.703-22.286-5.896-5.351-1.564-19.687-5.353-23.605-6.862-2.632-1.014-5.238-2.202-7.644-3.648a18.756 18.756 0 01-1.183-2.725c-2.574-7.558-.97-15.89 5.834-22.852.426-.434 1.15-1.15 1.962-1.93 1.278-.446 2.686-.832 4.187-1.17 7.134-1.592 15.903-2.365 21.693-3.308 5.51-.897 14.48-3.154 23.079-3.98a76.373 76.373 0 012.559-.198c.637.254 1.248.529 1.822.856 6.227 3.533 12.55 8.644 16.64 14.46a30.548 30.548 0 012.11 3.47 36.35 36.35 0 01-.702 1.258" fill="#f36f20"/><path d="M67.814 773.924h.95c1.065 0 2.276-.114 2.276-1.39 0-1.197-1.178-1.363-2.31-1.363h-.916zm-3.088-4.97h4.89c2.076 0 4.516.591 4.516 3.393 0 1.428-.796 2.27-2.341 2.585v.036c1.294.438 2.043 1.258 2.043 2.74 0 2.016-1.613 2.971-3.77 2.971h-5.338zm3.088 9.51h.898c1.035 0 2.03-.102 2.03-1.18 0-.987-1.049-1.24-2.06-1.24h-.869z" fill="#fff"/></g><path d="M113.667 92.234h-9.12l4.701-14.373h.097zm-24.073 14.787h9.854l2.874-7.845h13.633l2.715 7.845h10.627l-14.012-36.748H103.4zm41.615-36.749h12.36l12.305 24.958h.095l-.145-24.958h8.857v36.748h-12.038l-12.737-25.117h-.09l.294 25.117h-8.901z" fill="#fff"/><g clip-path="url(#b)" transform="matrix(3.13415 0 0 -3.13415 -142.147 2517.041)"><path d="M102.752 778.362h1.199c2.259 0 3.605-1.209 3.605-3.545 0-2.337-1.296-3.55-3.605-3.55h-1.2zm-3.094-9.408h4.226c3.956 0 6.864 1.53 6.864 5.911 0 4.54-2.824 5.814-6.864 5.814h-4.226z" fill="#fff"/></g><path d="M226.858 92.234h-9.136l4.698-14.373h.1zm-24.092 14.787h9.85l2.865-7.845h13.659l2.702 7.845h10.637l-14.013-36.748h-11.89zm41.202-36.747h9.697v36.748h-9.697zM60.712 115.018H73.18l12.42 24.964h.126l-.17-24.964h8.948v36.748H82.338L69.5 126.66h-.1l.316 25.107h-9.004zm60.093 21.959h-9.214l4.73-14.38h.1zm-24.333 14.79h9.963l2.88-7.836h13.794l2.733 7.836h10.76l-14.173-36.748h-12.001zm42.083-36.749h15.439l6.371 24.431h.1l6.742-24.43h14.84v36.747h-9.58l.156-28.21h-.11l-7.932 28.21h-9.01l-7.535-28.21h-.1l.197 28.21h-9.578zm78.795 35.916c-2.801.67-5.904 1.476-10.913 1.476-9.8 0-21.117-4.952-21.117-18.858 0-12.781 8.948-19.175 21.058-19.175 3.745 0 7.371.852 10.897 1.905l-.786 7.945c-3.153-1.72-6.212-2.579-9.569-2.579-6.955 0-11.487 5.062-11.487 11.904 0 7.224 5.097 11.6 12.264 11.6 3.21 0 6.476-.857 9.162-1.903zm11.615-17.534c0-6.382 2.357-11.753 8.325-11.753 5.945 0 8.315 5.371 8.315 11.753 0 6.048-2.37 11.753-8.315 11.753-5.968 0-8.325-5.705-8.325-11.753m-10.123 0c0 11.687 6.416 19.008 18.448 19.008 11.985 0 18.416-7.321 18.416-19.008 0-11.788-6.315-19.025-18.416-19.025-12.13 0-18.448 7.237-18.448 19.025" fill="#fff"/></svg>