<svg version="1.2" xmlns="http://www.w3.org/2000/svg" viewBox="0 0 1558 356" width="1558" height="356">
	<title>gartner-svg</title>
	<style>
		.s0 { fill: #002856 } 
	</style>
	<path id="Layer" class="s0" d="m318.2 321c-42.2 22.6-84.5 35.6-140.2 34-103.4-3.1-178-67.4-178-175.7 0-107.8 75.4-176.8 178.1-178.4 52.1-0.8 98.6 12.3 135.1 44.6l-44 44.2c-22.5-19.2-55.6-30.4-95.4-28.7-64.6 3-103.6 50.1-104.5 114.5-0.8 69.9 42.1 118.1 109.2 119.9 31.7 0.7 54.2-3.4 73.8-12.2v-71.4h-69.8l4.7-58.7h130.9z"/>
	<path id="Layer" fill-rule="evenodd" class="s0" d="m1550.8 115.9l-4.6 53.9h-22.1c-35.2 0-53.4 28.1-53.4 55.1v121.7h-62.1v-230.7h59l1.3 28.9c12.4-19.8 34-28.9 60.8-28.9zm-431.6 230.7h-62.3v-122c0-25.6-2.3-57.6-38.1-57.6-34.6 0-48.4 25-48.4 54v125.4h-62.3v-230.5h57.9l1.3 29.4c12.3-19.7 35.5-35.1 69.4-35.1 62.9 0 82.6 44.9 82.6 91.3zm-238.3-53.8l-4.4 52.5c-14.4 3.8-29.3 5.8-44.3 5.5-58.7 0-75.8-27-75.8-81.1v-218.7h62.4v65h62l-4.3 53.8h-57.7v95c0 21.8 5.9 33.4 28.3 33.4 11.5 0.2 23-1.7 33.8-5.4zm-144.8-176.8l-4.8 53.8h-17c-35 0-52.5 28.1-52.5 55.2v121.6h-62.2v-230.6h58.8l1.2 28.8c12.5-19.6 34.1-28.8 60.9-28.8zm644.8 137.4h-170.9c4.9 29.4 28.1 47.2 57 48.1 28.1 0.7 43.7-7.7 64.3-28.6l40.6 30.8c-28.8 35.6-63.6 48.5-103.2 48.5-69.4 0-121.4-48.5-121.4-120.9 0-72.4 51.8-120.9 118.9-120.9 74.1 0 114.5 44.9 114.5 124.3zm-62.4-48.4c-1.9-29.1-23.7-47.5-53.8-46.3-30.1 1.1-50.5 20.8-54.6 46.3zm-758.3-9.4v151.1h-55l-1.3-22.8c-16.8 20.8-44.2 28.3-72.4 28.3-42.4 0-82.4-20.8-83.3-69.5-1.2-76.5 86.2-82 141.1-82h11.1v-3.1c0-25.3-16.8-38.9-48.3-38.9-23 0.1-44.9 8.8-61.7 24.5l-35.9-36.5c28.9-23.9 65.3-36.9 102.7-36.3 71.6 0 103 33 103 85.2zm-59.8 50.4h-8.7c-29.5 0-81.3 1.5-81.1 32.4 0.3 43.5 89.8 29.6 89.8-22.8zm1026.3 104.9c-17.1-0.2-30.9-14.1-30.7-31.2 0-16.9 13.6-30.6 30.6-30.9 17.2-0.3 31.2 13.5 31.5 30.6 0.3 17.2-13.6 31.2-30.7 31.5-0.1 0-0.4 0-0.7 0zm-24.4-30.5c0 13.9 11.2 25.2 25.1 25.2 13.6 0 24.8-10.8 25.2-24.4 0.5-13.9-10.4-25.5-24.4-25.9-13.8-0.5-25.5 10.4-25.9 24.4 0 0.3 0 0.6 0 0.7zm18.7 17.2h-5.5v-35.7h13.6c8.5 0 12.6 3.1 12.6 10.1 0 6.4-3.8 9.3-9.1 9.9l10 15.7h-6l-9.4-15.4h-6.4zm6.4-19.9c4.5 0 8.6-0.4 8.6-5.8 0-4.6-3.9-5.3-7.8-5.3h-7.3v11z"/>
</svg>