<svg version="1.2" baseProfile="tiny-ps" xmlns="http://www.w3.org/2000/svg" viewBox="0 0 1579 719" width="1579" height="719">
	<title>kddi_ar2021_e-pages-1-pdf-svg</title>
	<defs>
		<clipPath clipPathUnits="userSpaceOnUse" id="cp1">
			<path d="M-753.51 -628.64L9389.98 -628.64L9389.98 13709.42L-753.51 13709.42L-753.51 -628.64Z" />
		</clipPath>
		<clipPath clipPathUnits="userSpaceOnUse" id="cp2">
			<path d="M1536.23 232.5L1461.2 707.76L1312.15 707.76L1335.74 557.74C1291.03 653.02 1196.75 710.32 1086.03 710.32L868.68 710.32L892.36 559.96C847.14 653.87 753.45 710.32 643.5 710.32L271.15 710.32L188.53 511.08L160.94 710.32L12.32 710.32L87.01 234.8L235.72 234.8L206.42 417.51L342.09 234.8L675.61 234.8C796.89 234.8 890.06 275.83 914.76 373.32C914.76 373.32 919.02 373.66 921.74 372.73L943.38 234.8L1118.06 234.8C1243.17 234.8 1338.21 278.39 1359.34 382.6C1360.19 386.69 1363.42 383.11 1363.42 383.11L1387.19 232.5L1536.23 232.5ZM431.26 679.33L496.08 265.87L330.76 476.52L431.26 679.33ZM593 581.75L631.58 581.75C699.12 581.75 756.01 550.51 767.68 476.69C780.02 397.67 740 364.13 665.73 364.13L627.15 364.13L593 581.75ZM1043.19 581.75L1081.77 581.75C1149.31 581.75 1206.29 550.51 1217.87 476.69C1230.22 397.67 1189.85 365.06 1115.59 365.06L1077.09 365.06L1043.19 581.75Z" />
		</clipPath>
	</defs>
	<style>
		tspan { white-space:pre }
		.shp0 { fill: #0b286f } 
		.shp1 { fill: #0b286f;stroke: #ffffff;stroke-width: 5.399 } 
		.shp2 { fill: #ffffff } 
		.shp3 { fill: #feffff } 
		.shp4 { fill: #fdfeff } 
		.shp5 { fill: #fcfeff } 
		.shp6 { fill: #fafeff } 
		.shp7 { fill: #fafdff } 
		.shp8 { fill: #f8fdff } 
		.shp9 { fill: #f7fdff } 
		.shp10 { fill: #f6fdff } 
		.shp11 { fill: #f5fcff } 
		.shp12 { fill: #f4fcfe } 
		.shp13 { fill: #f3fcfe } 
		.shp14 { fill: #f2fbfe } 
		.shp15 { fill: #f0fbfe } 
		.shp16 { fill: #effbfe } 
		.shp17 { fill: #eefafe } 
		.shp18 { fill: #edfafe } 
		.shp19 { fill: #ecfafe } 
		.shp20 { fill: #ebf9fe } 
		.shp21 { fill: #eaf9fe } 
		.shp22 { fill: #e9f9fe } 
		.shp23 { fill: #e8f9fe } 
		.shp24 { fill: #e6f8fe } 
		.shp25 { fill: #e5f8fe } 
		.shp26 { fill: #e4f8fe } 
		.shp27 { fill: #e3f7fe } 
		.shp28 { fill: #e2f7fe } 
		.shp29 { fill: #e1f7fe } 
		.shp30 { fill: #e0f6fd } 
		.shp31 { fill: #dff6fd } 
		.shp32 { fill: #def6fd } 
		.shp33 { fill: #dcf6fd } 
		.shp34 { fill: #dbf5fd } 
		.shp35 { fill: #daf5fd } 
		.shp36 { fill: #d9f5fd } 
		.shp37 { fill: #d8f4fd } 
		.shp38 { fill: #d7f4fd } 
		.shp39 { fill: #d6f4fd } 
		.shp40 { fill: #d5f3fd } 
		.shp41 { fill: #d4f3fd } 
		.shp42 { fill: #d2f3fd } 
		.shp43 { fill: #d1f3fd } 
		.shp44 { fill: #d0f2fd } 
		.shp45 { fill: #cff2fd } 
		.shp46 { fill: #cef2fd } 
		.shp47 { fill: #cdf1fd } 
		.shp48 { fill: #ccf1fc } 
		.shp49 { fill: #cbf1fc } 
		.shp50 { fill: #caf0fc } 
		.shp51 { fill: #c8f0fc } 
		.shp52 { fill: #c7f0fc } 
		.shp53 { fill: #c6f0fc } 
		.shp54 { fill: #c5effc } 
		.shp55 { fill: #c4effc } 
		.shp56 { fill: #c3effc } 
		.shp57 { fill: #c2eefc } 
		.shp58 { fill: #c1eefc } 
		.shp59 { fill: #bfeefc } 
		.shp60 { fill: #beeefc } 
		.shp61 { fill: #bdedfc } 
		.shp62 { fill: #bcedfc } 
		.shp63 { fill: #bbedfc } 
		.shp64 { fill: #baecfc } 
		.shp65 { fill: #b9ecfc } 
		.shp66 { fill: #b8ecfc } 
		.shp67 { fill: #b7ecfb } 
		.shp68 { fill: #b5ebfb } 
		.shp69 { fill: #b4ebfb } 
		.shp70 { fill: #b3ebfb } 
		.shp71 { fill: #b2eafb } 
		.shp72 { fill: #b1eafb } 
		.shp73 { fill: #b0eafb } 
		.shp74 { fill: #afe9fb } 
		.shp75 { fill: #aee9fb } 
		.shp76 { fill: #ace9fb } 
		.shp77 { fill: #abe9fb } 
		.shp78 { fill: #aae8fb } 
		.shp79 { fill: #a9e8fb } 
		.shp80 { fill: #a8e7fa } 
		.shp81 { fill: #a7e6fa } 
		.shp82 { fill: #a6e6fa } 
		.shp83 { fill: #a5e5f9 } 
		.shp84 { fill: #a4e4f9 } 
		.shp85 { fill: #a3e3f9 } 
		.shp86 { fill: #a2e3f8 } 
		.shp87 { fill: #a0e2f8 } 
		.shp88 { fill: #9fe1f8 } 
		.shp89 { fill: #9ee0f7 } 
		.shp90 { fill: #9ddff7 } 
		.shp91 { fill: #9cdff6 } 
		.shp92 { fill: #9bdef6 } 
		.shp93 { fill: #9addf6 } 
		.shp94 { fill: #99dcf5 } 
		.shp95 { fill: #98dcf5 } 
		.shp96 { fill: #97dbf5 } 
		.shp97 { fill: #96daf4 } 
		.shp98 { fill: #95d9f4 } 
		.shp99 { fill: #94d9f3 } 
		.shp100 { fill: #93d8f3 } 
		.shp101 { fill: #92d7f3 } 
		.shp102 { fill: #91d6f2 } 
		.shp103 { fill: #90d6f2 } 
		.shp104 { fill: #8fd5f2 } 
		.shp105 { fill: #8dd4f1 } 
		.shp106 { fill: #8cd3f1 } 
		.shp107 { fill: #8bd3f1 } 
		.shp108 { fill: #8ad2f0 } 
		.shp109 { fill: #89d1f0 } 
		.shp110 { fill: #88d0f0 } 
		.shp111 { fill: #87d0ef } 
		.shp112 { fill: #86cfef } 
		.shp113 { fill: #85ceee } 
		.shp114 { fill: #84cdee } 
		.shp115 { fill: #83cdee } 
		.shp116 { fill: #82cced } 
		.shp117 { fill: #81cbed } 
		.shp118 { fill: #80caed } 
		.shp119 { fill: #7fcaec } 
		.shp120 { fill: #7ec9ec } 
		.shp121 { fill: #7dc8ec } 
		.shp122 { fill: #7cc8eb } 
		.shp123 { fill: #7bc7eb } 
		.shp124 { fill: #7ac6eb } 
		.shp125 { fill: #79c5ea } 
		.shp126 { fill: #78c5ea } 
		.shp127 { fill: #77c4ea } 
		.shp128 { fill: #76c3e9 } 
		.shp129 { fill: #75c3e9 } 
		.shp130 { fill: #74c2e8 } 
		.shp131 { fill: #73c1e8 } 
		.shp132 { fill: #72c0e7 } 
		.shp133 { fill: #71bfe7 } 
		.shp134 { fill: #70bee6 } 
		.shp135 { fill: #70bde5 } 
		.shp136 { fill: #6fbce5 } 
		.shp137 { fill: #6ebbe4 } 
		.shp138 { fill: #6dbae3 } 
		.shp139 { fill: #6cb9e2 } 
		.shp140 { fill: #6cb8e2 } 
		.shp141 { fill: #6bb7e1 } 
		.shp142 { fill: #6ab6e0 } 
		.shp143 { fill: #69b5df } 
		.shp144 { fill: #68b3df } 
		.shp145 { fill: #68b3de } 
		.shp146 { fill: #67b1dd } 
		.shp147 { fill: #66b0dd } 
		.shp148 { fill: #66b0dc } 
		.shp149 { fill: #65aedb } 
		.shp150 { fill: #64adda } 
		.shp151 { fill: #63acda } 
		.shp152 { fill: #62abd9 } 
		.shp153 { fill: #62aad8 } 
		.shp154 { fill: #61a9d8 } 
		.shp155 { fill: #60a8d7 } 
		.shp156 { fill: #60a7d6 } 
		.shp157 { fill: #5fa6d6 } 
		.shp158 { fill: #5ea6d5 } 
		.shp159 { fill: #5da4d4 } 
		.shp160 { fill: #5da4d3 } 
		.shp161 { fill: #5ca3d3 } 
		.shp162 { fill: #5ba1d2 } 
		.shp163 { fill: #5ba1d1 } 
		.shp164 { fill: #5aa0d1 } 
		.shp165 { fill: #599fd0 } 
		.shp166 { fill: #599ecf } 
		.shp167 { fill: #589dce } 
		.shp168 { fill: #579cce } 
		.shp169 { fill: #569bcd } 
		.shp170 { fill: #569acc } 
		.shp171 { fill: #5599cc } 
		.shp172 { fill: #5498cb } 
		.shp173 { fill: #5497ca } 
		.shp174 { fill: #5396ca } 
		.shp175 { fill: #5295c9 } 
		.shp176 { fill: #5294c8 } 
		.shp177 { fill: #5193c8 } 
		.shp178 { fill: #5092c7 } 
		.shp179 { fill: #5091c6 } 
		.shp180 { fill: #4f90c6 } 
		.shp181 { fill: #4e90c5 } 
		.shp182 { fill: #4e8fc4 } 
		.shp183 { fill: #4d8ec4 } 
		.shp184 { fill: #4c8dc3 } 
		.shp185 { fill: #4c8cc2 } 
		.shp186 { fill: #4b8bc1 } 
		.shp187 { fill: #4a8ac1 } 
		.shp188 { fill: #4a89c0 } 
		.shp189 { fill: #4988bf } 
		.shp190 { fill: #4887bf } 
		.shp191 { fill: #4886be } 
		.shp192 { fill: #4785be } 
		.shp193 { fill: #4785bd } 
		.shp194 { fill: #4684bc } 
		.shp195 { fill: #4583bb } 
		.shp196 { fill: #4582bb } 
		.shp197 { fill: #4481ba } 
		.shp198 { fill: #4480b9 } 
		.shp199 { fill: #437fb9 } 
		.shp200 { fill: #427eb8 } 
		.shp201 { fill: #417db7 } 
		.shp202 { fill: #407cb6 } 
		.shp203 { fill: #407bb6 } 
		.shp204 { fill: #3f7ab5 } 
		.shp205 { fill: #3f79b4 } 
		.shp206 { fill: #3e78b4 } 
		.shp207 { fill: #3d78b3 } 
		.shp208 { fill: #3d77b2 } 
		.shp209 { fill: #3c76b2 } 
		.shp210 { fill: #3c75b1 } 
		.shp211 { fill: #3b74b0 } 
		.shp212 { fill: #3a73b0 } 
		.shp213 { fill: #3a73af } 
		.shp214 { fill: #3972ae } 
		.shp215 { fill: #3971ae } 
		.shp216 { fill: #3870ad } 
		.shp217 { fill: #386fad } 
		.shp218 { fill: #376eac } 
		.shp219 { fill: #376eab } 
		.shp220 { fill: #366dab } 
		.shp221 { fill: #356caa } 
		.shp222 { fill: #356ba9 } 
		.shp223 { fill: #346aa9 } 
		.shp224 { fill: #3469a8 } 
		.shp225 { fill: #3369a8 } 
		.shp226 { fill: #3368a7 } 
		.shp227 { fill: #3267a6 } 
		.shp228 { fill: #3266a6 } 
		.shp229 { fill: #3165a5 } 
		.shp230 { fill: #3165a4 } 
		.shp231 { fill: #3064a4 } 
		.shp232 { fill: #2f63a3 } 
		.shp233 { fill: #2f62a2 } 
		.shp234 { fill: #2e62a2 } 
		.shp235 { fill: #2e61a1 } 
		.shp236 { fill: #2d60a1 } 
		.shp237 { fill: #2d5fa0 } 
		.shp238 { fill: #2c5f9f } 
		.shp239 { fill: #2c5e9f } 
		.shp240 { fill: #2c5d9e } 
		.shp241 { fill: #2b5c9d } 
		.shp242 { fill: #2a5c9d } 
		.shp243 { fill: #2a5b9c } 
		.shp244 { fill: #295a9c } 
		.shp245 { fill: #29599b } 
		.shp246 { fill: #28599a } 
		.shp247 { fill: #28589a } 
		.shp248 { fill: #285799 } 
		.shp249 { fill: #275699 } 
		.shp250 { fill: #265698 } 
		.shp251 { fill: #265597 } 
		.shp252 { fill: #265497 } 
		.shp253 { fill: #255396 } 
		.shp254 { fill: #245295 } 
		.shp255 { fill: #245194 } 
		.shp256 { fill: #235094 } 
		.shp257 { fill: #235093 } 
		.shp258 { fill: #224f93 } 
		.shp259 { fill: #224e92 } 
		.shp260 { fill: #214e91 } 
		.shp261 { fill: #214d91 } 
		.shp262 { fill: #214c90 } 
		.shp263 { fill: #204c90 } 
		.shp264 { fill: #204b8f } 
		.shp265 { fill: #1f4a8e } 
		.shp266 { fill: #1e498d } 
		.shp267 { fill: #1e488d } 
		.shp268 { fill: #1d478c } 
		.shp269 { fill: #1d478b } 
		.shp270 { fill: #1d468b } 
		.shp271 { fill: #1c458a } 
		.shp272 { fill: #1b4489 } 
		.shp273 { fill: #1a4388 } 
		.shp274 { fill: #1a4287 } 
		.shp275 { fill: #194186 } 
		.shp276 { fill: #194086 } 
		.shp277 { fill: #194085 } 
		.shp278 { fill: #183f85 } 
		.shp279 { fill: #183e84 } 
		.shp280 { fill: #173e83 } 
		.shp281 { fill: #173d83 } 
		.shp282 { fill: #173c82 } 
		.shp283 { fill: #163c82 } 
		.shp284 { fill: #163b81 } 
		.shp285 { fill: #153a81 } 
		.shp286 { fill: #153a80 } 
		.shp287 { fill: #15397f } 
		.shp288 { fill: #14397f } 
		.shp289 { fill: #14387e } 
		.shp290 { fill: #14377e } 
		.shp291 { fill: #13377d } 
		.shp292 { fill: #13367d } 
		.shp293 { fill: #12367c } 
		.shp294 { fill: #12357b } 
		.shp295 { fill: #12347b } 
		.shp296 { fill: #12347a } 
		.shp297 { fill: #11337a } 
		.shp298 { fill: #113379 } 
		.shp299 { fill: #103279 } 
		.shp300 { fill: #103178 } 
		.shp301 { fill: #0f3077 } 
		.shp302 { fill: #0f2f76 } 
		.shp303 { fill: #0e2f75 } 
		.shp304 { fill: #0e2e75 } 
		.shp305 { fill: #0e2d74 } 
		.shp306 { fill: #0d2d74 } 
		.shp307 { fill: #0d2c73 } 
		.shp308 { fill: #0d2b72 } 
		.shp309 { fill: #0c2b72 } 
		.shp310 { fill: #0c2a71 } 
		.shp311 { fill: #0b2970 } 
	</style>
	<g id="Clip-Path: Page 1" clip-path="url(#cp1)">
		<g id="Page 1">
			<path id="Path 7" class="shp0" d="M187.26 3.55L117.84 3.55L115.46 17.26L142.54 17.26L125.51 117.38L139.99 117.38L157.02 17.26L184.87 17.26L187.26 3.55Z" />
			<path id="Path 9" fill-rule="evenodd" class="shp0" d="M259.99 50.04C263.23 56.17 264.67 63.23 264.42 70.98C264.08 79.84 261.61 88.09 257.09 95.67C252.5 103.25 246.45 109.21 239.12 113.3C231.71 117.47 223.37 119.51 214.25 119.51C202.84 119.51 193.47 115.68 186.32 108.19C179.25 100.7 175.76 91.07 176.18 79.58C176.53 70.56 179 62.21 183.51 54.63C188.11 47.06 194.24 41.01 201.82 36.75C209.4 32.41 217.75 30.2 226.43 30.2C233.67 30.2 240.32 31.99 246.28 35.48C252.24 38.97 256.84 43.82 259.99 50.04ZM233.08 101.97C238.27 98.99 242.45 94.65 245.68 89.03C248.92 83.41 250.71 77.2 250.88 70.73C251.05 65.36 250.11 60.59 248.07 56.42C246.02 52.42 242.96 49.18 239.04 46.97C235.12 44.67 230.61 43.48 225.84 43.48C219.62 43.48 213.66 45.1 208.04 48.16C202.5 51.31 198.07 55.57 194.92 61.02C191.77 66.38 190.07 72.51 189.9 79.07C189.56 87.33 191.77 93.8 196.71 98.91C201.48 103.93 207.87 106.49 215.87 106.49C222.09 106.49 227.88 104.95 233.08 101.97ZM398.9 38.03C403.92 43.14 406.31 49.95 406.05 58.04C405.88 61.62 405.46 66.04 404.6 71.15L396.94 117.38L383.31 117.38L390.3 76.26C391.74 68.17 392.51 62.13 392.6 58.38C392.77 54.04 391.49 50.63 388.76 47.82C386.04 45.01 382.46 43.65 377.78 43.65C372.67 43.65 367.9 45.27 363.38 48.42C358.87 51.57 355.55 55.4 353.59 59.74C351.55 64.17 349.84 69.96 348.65 76.77L341.67 117.38L327.87 117.38L335.87 70.64C336.64 65.96 337.07 62.04 337.24 59.06C337.41 54.21 336.13 50.46 333.4 47.65C330.68 44.76 327.1 43.39 322.5 43.39C318.5 43.39 314.58 44.33 310.92 46.2C307.17 48.08 304.02 50.55 301.64 53.53C299.17 56.59 297.29 60.42 295.93 64.94C294.57 69.62 293.55 73.79 292.95 77.54L286.22 117.38L272.42 117.38L286.9 32.33L300.53 32.33L299.17 40.33C301.89 37.86 305.04 35.73 308.45 34.03C313.65 31.47 318.93 30.2 324.21 30.2C330.68 30.2 336.56 32.16 341.41 36.07C344.56 38.54 347.03 42.12 348.73 46.54C352.4 41.86 356.74 38.03 361.68 35.22C367.47 31.9 373.35 30.2 379.31 30.2C387.32 30.2 393.87 32.84 398.9 38.03ZM502.29 50.04C505.44 56.17 506.98 63.23 506.64 70.98C506.38 79.84 503.91 88.09 499.31 95.67C494.8 103.25 488.75 109.21 481.43 113.3C474.02 117.47 465.67 119.51 456.56 119.51C445.14 119.51 435.78 115.68 428.62 108.19C421.47 100.7 418.06 91.07 418.49 79.58C418.74 70.56 421.21 62.21 425.81 54.63C430.33 47.06 436.54 41.01 444.12 36.75C451.7 32.41 459.96 30.2 468.74 30.2C475.98 30.2 482.62 31.99 488.58 35.48C494.46 38.97 499.14 43.82 502.29 50.04ZM475.38 101.97C480.49 98.99 484.75 94.65 487.98 89.03C491.22 83.41 492.92 77.2 493.18 70.73C493.35 65.36 492.41 60.59 490.37 56.42C488.24 52.42 485.26 49.18 481.34 46.97C477.34 44.67 472.91 43.48 468.05 43.48C461.92 43.48 455.88 45.1 450.34 48.16C444.72 51.31 440.38 55.57 437.22 61.02C434.07 66.38 432.37 72.51 432.11 79.07C431.86 87.33 434.07 93.8 438.93 98.91C443.7 103.93 450.17 106.49 458.09 106.49C464.39 106.49 470.18 104.95 475.38 101.97ZM574.43 33.18L567.53 45.69L566.25 45.1C563.87 44.16 561.91 43.65 560.38 43.65C557.06 43.65 553.65 44.84 550.33 47.23C546.92 49.61 544.02 53.1 541.72 57.78C539.43 62.47 537.3 70.47 535.42 81.37L529.12 117.38L515.49 117.38L529.97 32.33L543.85 32.33L542.75 38.88C544.88 36.84 547.26 35.05 549.82 33.69C557.14 29.77 564.72 28.92 572.81 32.5L574.43 33.18ZM628.43 33.18L621.61 45.69L620.25 45.1C617.86 44.16 615.91 43.65 614.37 43.65C611.05 43.65 607.73 44.84 604.32 47.23C600.92 49.61 598.02 53.1 595.81 57.78C593.42 62.47 591.29 70.47 589.42 81.37L583.2 117.38L569.57 117.38L584.05 32.33L597.94 32.33L596.74 38.88C598.96 36.84 601.34 35.05 603.9 33.69C611.22 29.77 618.8 28.92 626.81 32.5L628.43 33.18Z" />
			<path id="Path 10" fill-rule="evenodd" class="shp0" d="M706.61 50.04C709.76 56.17 711.21 63.23 710.95 70.98C710.7 79.84 708.23 88.09 703.63 95.67C699.12 103.25 693.07 109.21 685.66 113.3C678.33 117.47 669.99 119.51 660.87 119.51C649.46 119.51 640.01 115.68 632.94 108.19C625.79 100.7 622.38 91.07 622.8 79.58C623.06 70.56 625.53 62.21 630.13 54.63C634.64 47.06 640.78 41.01 648.44 36.75C656.02 32.41 664.28 30.2 673.05 30.2C680.29 30.2 686.94 31.99 692.81 35.48C698.77 38.97 703.46 43.82 706.61 50.04ZM679.7 101.97C684.81 98.99 689.07 94.65 692.3 89.03C695.54 83.41 697.24 77.2 697.5 70.73C697.67 65.36 696.73 60.59 694.6 56.42C692.56 52.42 689.58 49.18 685.66 46.97C681.66 44.67 677.23 43.48 672.37 43.48C666.24 43.48 660.19 45.1 654.66 48.16C649.04 51.31 644.61 55.57 641.54 61.02C638.39 66.38 636.69 72.51 636.43 79.07C636.18 87.33 638.39 93.8 643.24 98.91C648.01 103.93 654.49 106.49 662.41 106.49C668.71 106.49 674.5 104.95 679.7 101.97ZM849.1 32.33L802.17 117.38L797.91 117.38L781.64 62.21L750.3 117.38L746.04 117.38L724.24 32.33L738.12 32.33L752.26 87.41L783.52 32.33L787.52 32.33L803.45 88.01L834.11 32.33L849.1 32.33ZM981.96 17.26L954.11 17.26L937.07 117.38L922.6 117.38L939.63 17.26L912.55 17.26L914.93 3.55L984.34 3.55L981.96 17.26Z" />
			<path id="Path 11" fill-rule="evenodd" class="shp0" d="M1057.08 50.04C1060.23 56.17 1061.76 63.23 1061.5 70.98C1061.16 79.84 1058.69 88.09 1054.18 95.67C1049.58 103.25 1043.53 109.21 1036.21 113.3C1028.8 117.47 1020.45 119.51 1011.34 119.51C999.93 119.51 990.56 115.68 983.41 108.19C976.25 100.7 972.84 91.07 973.27 79.58C973.61 70.56 976.08 62.21 980.59 54.63C985.11 47.06 991.33 41.01 998.91 36.75C1006.49 32.41 1014.75 30.2 1023.52 30.2C1030.76 30.2 1037.4 31.99 1043.36 35.48C1049.32 38.97 1053.92 43.82 1057.08 50.04ZM1030.16 101.97C1035.27 98.99 1039.53 94.65 1042.77 89.03C1046 83.41 1047.71 77.2 1047.96 70.73C1048.13 65.36 1047.2 60.59 1045.15 56.42C1043.11 52.42 1040.04 49.18 1036.12 46.97C1032.12 44.67 1027.69 43.48 1022.92 43.48C1016.71 43.48 1010.74 45.1 1005.12 48.16C999.5 51.31 995.16 55.57 992.01 61.02C988.86 66.38 987.15 72.51 986.98 79.07C986.64 87.33 988.86 93.8 993.71 98.91C998.56 103.93 1004.95 106.49 1012.87 106.49C1019.18 106.49 1024.97 104.95 1030.16 101.97ZM1155.44 32.33L1169.07 32.33L1156.89 103.51C1155.02 114.91 1152.89 122.75 1150.42 127.43C1147.18 133.82 1141.82 139.18 1134.58 143.27C1127.34 147.35 1118.82 149.48 1109.2 149.48C1099.74 149.48 1091.57 147.44 1085.01 143.61C1078.37 139.69 1073.34 133.9 1070.11 126.49L1069.42 124.88L1081.94 120.45L1082.54 121.73C1087.65 131.6 1096.51 136.37 1109.54 136.37C1116.35 136.37 1122.4 135.01 1127.51 132.2C1132.53 129.47 1136.2 125.98 1138.5 121.73C1139.69 119.26 1141.14 113.98 1142.75 105.97C1133.98 113.55 1123.85 117.38 1112.35 117.38C1100.68 117.38 1091.23 113.72 1084.33 106.57C1077.35 99.33 1074.11 89.97 1074.45 78.47C1074.79 70.13 1077.26 62.13 1081.77 54.8C1086.37 47.48 1092.59 41.44 1100.26 37.01C1107.92 32.5 1115.76 30.2 1123.59 30.2C1130.15 30.2 1136.2 31.73 1141.56 34.71C1145.82 37.09 1149.74 40.67 1153.23 45.27L1155.44 32.33ZM1138.92 94.4C1145.65 87.92 1149.31 79.58 1149.65 69.7C1149.91 61.02 1147.61 54.63 1142.5 50.21C1137.39 45.78 1131.68 43.48 1125.38 43.48C1118.82 43.48 1112.6 45.1 1106.9 48.25C1101.19 51.31 1096.68 55.66 1093.36 61.02C1090.12 66.3 1088.33 72.43 1088.08 79.07C1087.82 86.65 1089.95 92.61 1094.63 97.2C1099.23 101.8 1105.62 104.1 1113.8 104.1C1123.68 104.1 1132.11 100.87 1138.92 94.4ZM1255.6 41.35C1262.5 48.76 1265.82 58.29 1265.4 69.7C1265.31 71.75 1265.05 74.3 1264.63 77.2L1264.37 78.64L1191.64 78.64C1191.47 87.07 1193.6 93.88 1198.03 98.82C1202.8 104.1 1209.1 106.57 1217.36 106.57C1222.9 106.57 1228.09 105.46 1232.86 103.25C1237.55 101.04 1241.63 97.8 1244.79 93.8L1245.81 92.44L1255.94 100.95L1254.92 102.23C1250.66 107.42 1245.13 111.68 1238.4 114.83C1231.67 117.89 1224.43 119.51 1216.85 119.51C1203.48 119.51 1193.51 115.26 1187.04 107C1180.65 98.74 1177.59 89.37 1177.93 79.07C1178.27 70.73 1180.74 62.55 1185.51 54.8C1190.28 47.14 1196.49 41.01 1204.16 36.75C1211.74 32.41 1220.09 30.2 1228.77 30.2C1239.67 30.2 1248.7 33.94 1255.6 41.35ZM1252.02 66.13C1251.68 59.66 1249.38 54.38 1245.3 50.29C1240.78 45.78 1235.08 43.56 1228.01 43.56C1220.17 43.56 1213.19 45.78 1207.06 50.12C1201.52 54.12 1197.35 59.49 1194.54 66.13L1252.02 66.13ZM1323.99 32.33L1321.95 44.76L1305.42 44.76L1293.25 117.38L1279.36 117.38L1291.71 44.76L1277.66 44.76L1279.87 32.33L1293.84 32.33L1299.12 1.76L1312.66 1.76L1307.55 32.33L1323.99 32.33ZM1397.49 38.46C1402.86 43.91 1405.41 51.14 1405.16 59.83C1404.99 64.42 1404.22 70.73 1402.94 78.47L1396.3 117.38L1382.67 117.38L1389.31 77.88C1390.59 70.47 1391.27 64.42 1391.36 60.08C1391.61 54.89 1390.17 50.8 1387.1 47.65C1384.03 44.59 1379.78 42.97 1374.58 42.97C1369.56 42.97 1364.7 44.33 1360.1 47.06C1355.59 49.7 1351.93 53.44 1349.37 58.04C1346.65 62.64 1344.43 70.3 1342.64 80.6L1336.43 117.38L1322.8 117.38L1342.64 0.74L1356.27 0.74L1349.37 41.61C1357.46 34.03 1366.57 30.2 1376.37 30.2C1385.06 30.2 1392.13 33.01 1397.49 38.46ZM1497.31 41.35C1504.12 48.76 1507.44 58.29 1507.02 69.7C1507.02 71.75 1506.76 74.3 1506.25 77.2L1506.08 78.64L1433.26 78.64C1433.09 87.07 1435.22 93.88 1439.73 98.82C1444.42 104.1 1450.72 106.57 1459.07 106.57C1464.52 106.57 1469.71 105.46 1474.48 103.25C1479.25 101.04 1483.25 97.8 1486.41 93.8L1487.43 92.44L1497.56 100.95L1496.54 102.23C1492.28 107.42 1486.75 111.68 1480.02 114.83C1473.38 117.89 1466.05 119.51 1458.47 119.51C1445.18 119.51 1435.14 115.26 1428.66 107C1422.27 98.74 1419.21 89.37 1419.55 79.07C1419.89 70.73 1422.45 62.55 1427.13 54.8C1431.9 47.14 1438.12 41.01 1445.78 36.75C1453.45 32.41 1461.71 30.2 1470.39 30.2C1481.3 30.2 1490.32 33.94 1497.31 41.35ZM1493.65 66.13C1493.3 59.66 1491.09 54.38 1486.92 50.29C1482.4 45.78 1476.78 43.56 1469.63 43.56C1461.79 43.56 1454.81 45.78 1448.68 50.12C1443.23 54.12 1438.97 59.49 1436.16 66.13L1493.65 66.13ZM1571.57 33.18L1564.68 45.69L1563.31 45.1C1561.01 44.16 1558.97 43.65 1557.52 43.65C1554.2 43.65 1550.79 44.84 1547.47 47.23C1543.98 49.61 1541.17 53.1 1538.87 57.78C1536.57 62.47 1534.44 70.47 1532.48 81.37L1526.26 117.38L1512.64 117.38L1527.12 32.33L1541 32.33L1539.89 38.88C1542.02 36.84 1544.41 35.05 1546.96 33.69C1554.28 29.77 1561.86 28.92 1569.96 32.5L1571.57 33.18ZM863.57 99.76L845.01 125.73L831.98 125.73L847.39 99.76L863.57 99.76Z" />
			<g id="Clip-Path: Mask" clip-path="url(#cp2)">
				<g id="Mask">
					<path id="Path 12" class="shp1" d="M1558.8 204.31L-26.6 204.31L-26.6 740.54L1558.8 740.54L1558.8 204.31Z" />
					<path id="Path 13" class="shp2" d="M-24.81 737.05C292.27 502.74 684.38 364.21 1108.94 364.21C1300.48 364.21 1485.47 392.4 1659.98 444.84L1659.98 737.73L-24.81 737.05Z" />
					<path id="Path 14" class="shp3" d="M-24.04 736.97C292.86 502.83 684.72 364.38 1108.94 364.38C1300.48 364.38 1485.38 392.57 1659.81 445.01L1659.81 737.56L-24.04 736.97Z" />
					<path id="Path 15" class="shp4" d="M-23.19 736.88C293.46 502.91 685.06 364.64 1108.94 364.55C1300.4 364.55 1485.3 392.65 1659.72 445.1L1659.72 737.48L-23.19 736.88Z" />
					<path id="Path 16" class="shp5" d="M-22.43 736.8C294.06 503.08 685.32 364.89 1109.03 364.72C1300.4 364.72 1485.21 392.82 1659.55 445.27L1659.55 737.39L-22.43 736.8Z" />
					<path id="Path 17" class="shp6" d="M-21.66 736.71C294.65 503.17 685.66 365.06 1109.03 364.89C1300.31 364.89 1485.13 392.99 1659.47 445.35L1659.47 737.22L-21.66 736.71Z" />
					<path id="Path 18" class="shp7" d="M-20.81 736.63C295.25 503.25 686 365.32 1109.03 365.15C1300.31 365.06 1485.04 393.16 1659.3 445.44L1659.3 737.14L-20.81 736.63Z" />
					<path id="Path 19" class="shp8" d="M-20.04 736.46C295.85 503.42 686.34 365.49 1109.03 365.32C1300.23 365.15 1484.96 393.25 1659.13 445.61L1659.13 736.97L-20.04 736.46Z" />
					<path id="Path 20" class="shp9" d="M-19.19 736.37C296.44 503.51 686.68 365.75 1109.03 365.49C1300.23 365.32 1484.87 393.42 1659.04 445.69L1659.04 736.88L-19.19 736.37Z" />
					<path id="Path 21" class="shp10" d="M-18.42 736.29C297.04 503.59 686.94 365.92 1109.03 365.66C1300.14 365.49 1484.79 393.59 1658.87 445.78L1658.87 736.71L-18.42 736.29Z" />
					<path id="Path 22" class="shp11" d="M-17.66 736.2C297.63 503.68 687.28 366.17 1109.11 365.83C1300.14 365.66 1484.7 393.67 1658.7 445.95L1658.7 736.63L-17.66 736.2Z" />
					<path id="Path 23" class="shp12" d="M-16.81 736.12C298.32 503.85 687.62 366.43 1109.11 366C1300.06 365.83 1484.62 393.84 1658.62 446.04L1658.62 736.46L-16.81 736.12Z" />
					<path id="Path 24" class="shp13" d="M-16.04 736.03C298.91 503.93 687.96 366.6 1109.11 366.26C1300.06 366 1484.53 394.01 1658.44 446.12L1658.44 736.37L-16.04 736.03Z" />
					<path id="Path 25" class="shp14" d="M-15.19 735.86C299.51 504.02 688.21 366.85 1109.11 366.43C1299.97 366.17 1484.45 394.1 1658.36 446.29L1658.36 736.29L-15.19 735.86Z" />
					<path id="Path 26" class="shp15" d="M-14.42 735.78C300.1 504.1 688.55 367.11 1109.11 366.6C1299.97 366.34 1484.36 394.27 1658.19 446.38L1658.19 736.12L-14.42 735.78Z" />
					<path id="Path 27" class="shp16" d="M-13.57 735.69C300.7 504.27 688.89 367.28 1109.2 366.77C1299.97 366.51 1484.28 394.44 1658.02 446.55L1658.02 736.03L-13.57 735.69Z" />
					<path id="Path 28" class="shp17" d="M-12.8 735.61C301.3 504.36 689.24 367.53 1109.2 366.94C1299.89 366.68 1484.19 394.52 1657.93 446.63L1657.93 735.86L-12.8 735.61Z" />
					<path id="Path 29" class="shp18" d="M-12.04 735.52C301.89 504.44 689.49 367.7 1109.2 367.11C1299.89 366.85 1484.02 394.69 1657.76 446.72L1657.76 735.78L-12.04 735.52Z" />
					<path id="Path 30" class="shp19" d="M-11.18 735.44C302.49 504.53 689.83 367.96 1109.2 367.28C1299.8 367.02 1483.94 394.86 1657.68 446.89L1657.68 735.61L-11.18 735.44Z" />
					<path id="Path 31" class="shp20" d="M-10.42 735.27C303.08 504.7 690.17 368.21 1109.2 367.53C1299.8 367.19 1483.85 395.03 1657.51 446.97L1657.51 735.52L-10.42 735.27Z" />
					<path id="Path 32" class="shp21" d="M-9.57 735.18C303.68 504.78 690.51 368.38 1109.2 367.7C1299.72 367.36 1483.77 395.12 1657.34 447.06L1657.34 735.35L-9.57 735.18Z" />
					<path id="Path 33" class="shp22" d="M-8.8 735.1C304.28 504.87 690.77 368.64 1109.28 367.87C1299.72 367.53 1483.68 395.29 1657.25 447.23L1657.25 735.27L-8.8 735.1Z" />
					<path id="Path 34" class="shp23" d="M-8.03 735.01C304.87 504.95 691.11 368.81 1109.28 368.04C1299.63 367.7 1483.6 395.38 1657.08 447.31L1657.08 735.1L-8.03 735.01Z" />
					<path id="Path 35" class="shp24" d="M-7.18 734.92C305.55 505.12 691.45 369.07 1109.28 368.21C1299.63 367.87 1483.51 395.55 1656.91 447.4L1656.91 735.01L-7.18 734.92Z" />
					<path id="Path 36" class="shp25" d="M-6.41 734.75C306.15 505.21 691.79 369.24 1109.28 368.38C1299.55 368.04 1483.43 395.72 1656.83 447.57L1656.83 734.92L-6.41 734.75Z" />
					<path id="Path 37" class="shp26" d="M-5.56 734.67C306.75 505.29 692.05 369.49 1109.28 368.56C1299.55 368.21 1483.34 395.89 1656.66 447.65L1656.66 734.75L-5.56 734.67Z" />
					<path id="Path 38" class="shp27" d="M-4.8 734.58C307.34 505.46 692.39 369.75 1109.28 368.81C1299.46 368.38 1483.25 395.97 1656.49 447.82L1656.49 734.67L-4.8 734.58Z" />
					<path id="Path 39" class="shp28" d="M-4.03 734.5C307.94 505.55 692.73 369.92 1109.28 368.98C1299.46 368.56 1483.17 396.14 1656.4 447.91L1656.4 734.5L-4.03 734.5Z" />
					<path id="Path 40" class="shp29" d="M-3.18 734.41C308.54 505.64 693.07 370.17 1109.37 369.15C1299.46 368.64 1483.08 396.31 1656.23 447.99L1656.23 734.41L-3.18 734.41Z" />
					<path id="Path 41" class="shp30" d="M-2.41 734.33C309.13 505.72 693.32 370.34 1109.37 369.32C1299.38 368.81 1483 396.4 1656.15 448.16L1656.15 734.24L-2.41 734.33Z" />
					<path id="Path 42" class="shp31" d="M-1.56 734.16C309.73 505.89 693.66 370.6 1109.37 369.49C1299.38 368.98 1482.91 396.57 1655.98 448.25L1655.98 734.16L-1.56 734.16Z" />
					<path id="Path 43" class="shp32" d="M-0.79 734.07C310.32 505.98 694 370.85 1109.37 369.66C1299.29 369.15 1482.74 396.74 1655.8 448.33L1655.8 733.99L-0.79 734.07Z" />
					<path id="Path 44" class="shp33" d="M-0.03 733.99C310.92 506.06 694.35 371.02 1109.37 369.92C1299.29 369.32 1482.66 396.82 1655.72 448.5L1655.72 733.9L-0.03 733.99Z" />
					<path id="Path 45" class="shp34" d="M0.82 733.9C311.52 506.23 694.6 371.28 1109.45 370.09C1299.21 369.49 1482.57 396.99 1655.55 448.59L1655.55 733.82L0.82 733.9Z" />
					<path id="Path 46" class="shp35" d="M1.59 733.82C312.2 506.32 694.94 371.45 1109.45 370.26C1299.21 369.66 1482.49 397.16 1655.46 448.67L1655.46 733.65L1.59 733.82Z" />
					<path id="Path 47" class="shp36" d="M2.44 733.73C312.79 506.4 695.28 371.71 1109.45 370.43C1299.12 369.83 1482.4 397.25 1655.29 448.84L1655.29 733.56L2.44 733.73Z" />
					<path id="Path 48" class="shp37" d="M3.21 733.56C313.39 506.49 695.62 371.96 1109.45 370.6C1299.12 370 1482.32 397.42 1655.21 448.93L1655.21 733.39L3.21 733.56Z" />
					<path id="Path 49" class="shp38" d="M4.06 733.48C313.99 506.66 695.96 372.13 1109.45 370.77C1299.04 370.17 1482.23 397.59 1655.04 449.02L1655.04 733.31L4.06 733.48Z" />
					<path id="Path 50" class="shp39" d="M4.83 733.39C314.58 506.74 696.22 372.39 1109.54 370.94C1299.04 370.34 1482.15 397.67 1654.87 449.19L1654.87 733.14L4.83 733.39Z" />
					<path id="Path 51" class="shp40" d="M5.59 733.31C315.18 506.83 696.56 372.56 1109.54 371.11C1299.04 370.51 1482.06 397.84 1654.78 449.27L1654.78 733.05L5.59 733.31Z" />
					<path id="Path 52" class="shp41" d="M6.45 733.22C315.77 506.91 696.9 372.81 1109.54 371.36C1298.95 370.68 1481.98 398.01 1654.61 449.44L1654.61 732.88L6.45 733.22Z" />
					<path id="Path 53" class="shp42" d="M7.21 733.14C316.37 507.08 697.24 373.07 1109.54 371.54C1298.95 370.85 1481.89 398.18 1654.44 449.53L1654.44 732.8L7.21 733.14Z" />
					<path id="Path 54" class="shp43" d="M8.06 732.97C316.97 507.17 697.5 373.24 1109.54 371.71C1298.87 371.02 1481.81 398.27 1654.36 449.61L1654.36 732.63L8.06 732.97Z" />
					<path id="Path 55" class="shp44" d="M8.83 732.88C317.56 507.25 697.84 373.49 1109.54 371.88C1298.78 371.19 1481.72 398.44 1654.19 449.78L1654.19 732.54L8.83 732.88Z" />
					<path id="Path 56" class="shp45" d="M9.6 732.8C318.24 507.34 698.18 373.66 1109.62 372.05C1298.78 371.36 1481.64 398.61 1654.02 449.87L1654.02 732.46L9.6 732.8Z" />
					<path id="Path 57" class="shp46" d="M10.45 732.71C318.84 507.51 698.52 373.92 1109.62 372.22C1298.78 371.54 1481.55 398.7 1653.93 449.95L1653.93 732.29L10.45 732.71Z" />
					<path id="Path 58" class="shp47" d="M11.21 732.63C319.44 507.59 698.77 374.17 1109.62 372.47C1298.7 371.71 1481.38 398.87 1653.76 450.12L1653.76 732.2L11.21 732.63Z" />
					<path id="Path 59" class="shp48" d="M12.07 732.54C320.03 507.68 699.12 374.34 1109.62 372.64C1298.7 371.88 1481.3 399.04 1653.68 450.21L1653.68 732.03L12.07 732.54Z" />
					<path id="Path 60" class="shp49" d="M12.83 732.37C320.63 507.85 699.46 374.6 1109.62 372.81C1298.61 371.96 1481.21 399.12 1653.51 450.38L1653.51 731.94L12.83 732.37Z" />
					<path id="Path 61" class="shp50" d="M13.6 732.29C321.23 507.93 699.8 374.77 1109.62 372.98C1298.61 372.13 1481.13 399.29 1653.33 450.46L1653.33 731.77L13.6 732.29Z" />
					<path id="Path 62" class="shp51" d="M14.45 732.2C321.82 508.02 700.05 375.03 1109.71 373.15C1298.53 372.3 1481.04 399.46 1653.25 450.55L1653.25 731.69L14.45 732.2Z" />
					<path id="Path 63" class="shp52" d="M15.22 732.12C322.42 508.1 700.39 375.2 1109.71 373.32C1298.53 372.47 1480.96 399.55 1653.08 450.72L1653.08 731.52L15.22 732.12Z" />
					<path id="Path 64" class="shp53" d="M16.07 732.03C323.01 508.19 700.73 375.45 1109.71 373.49C1298.44 372.64 1480.87 399.72 1652.91 450.8L1652.91 731.43L16.07 732.03Z" />
					<path id="Path 65" class="shp54" d="M16.84 731.94C323.61 508.36 701.07 375.71 1109.71 373.75C1298.44 372.81 1480.78 399.89 1652.82 450.89L1652.82 731.35L16.84 731.94Z" />
					<path id="Path 66" class="shp55" d="M17.6 731.77C324.21 508.44 701.41 375.88 1109.71 373.92C1298.36 372.98 1480.7 400.06 1652.65 451.06L1652.65 731.18L17.6 731.77Z" />
					<path id="Path 67" class="shp56" d="M18.45 731.69C324.89 508.53 701.67 376.13 1109.79 374.09C1298.36 373.15 1480.61 400.14 1652.57 451.14L1652.57 731.09L18.45 731.69Z" />
					<path id="Path 68" class="shp57" d="M19.22 731.6C325.48 508.7 702.01 376.39 1109.79 374.26C1298.27 373.32 1480.53 400.31 1652.4 451.23L1652.4 730.92L19.22 731.6Z" />
					<path id="Path 69" class="shp58" d="M20.07 731.52C326.08 508.79 702.35 376.56 1109.79 374.43C1298.27 373.49 1480.44 400.4 1652.23 451.4L1652.23 730.84L20.07 731.52Z" />
					<path id="Path 70" class="shp59" d="M20.84 731.35C326.68 508.87 702.69 376.81 1109.79 374.6C1298.27 373.66 1480.36 400.57 1652.14 451.48L1652.14 730.67L20.84 731.35Z" />
					<path id="Path 71" class="shp60" d="M21.61 731.26C327.27 508.96 702.95 376.98 1109.79 374.77C1298.19 373.83 1480.19 400.74 1651.97 451.57L1651.97 730.58L21.61 731.26Z" />
					<path id="Path 72" class="shp61" d="M22.46 731.18C327.87 509.13 703.29 377.24 1109.79 375.03C1298.1 374 1480.19 400.91 1651.89 451.74L1651.89 730.41L22.46 731.18Z" />
					<path id="Path 73" class="shp62" d="M23.22 731.09C328.46 509.21 703.63 377.41 1109.88 375.2C1298.1 374.17 1480.1 400.99 1651.72 451.82L1651.72 730.33L23.22 731.09Z" />
					<path id="Path 74" class="shp63" d="M24.08 731.01C329.06 509.3 703.97 377.67 1109.88 375.37C1298.1 374.34 1480.02 401.16 1651.63 452L1651.63 730.24L24.08 731.01Z" />
					<path id="Path 75" class="shp64" d="M24.84 730.92C329.66 509.47 704.23 377.92 1109.88 375.54C1298.01 374.52 1479.85 401.34 1651.46 452.08L1651.46 730.07L24.84 730.92Z" />
					<path id="Path 76" class="shp65" d="M25.69 730.75C330.25 509.55 704.57 378.09 1109.88 375.71C1298.01 374.69 1479.76 401.42 1651.29 452.17L1651.29 729.99L25.69 730.75Z" />
					<path id="Path 77" class="shp66" d="M26.46 730.67C330.93 509.64 704.91 378.35 1109.88 375.88C1297.93 374.86 1479.68 401.59 1651.21 452.34L1651.21 729.82L26.46 730.67Z" />
					<path id="Path 78" class="shp67" d="M27.23 730.58C331.53 509.72 705.25 378.52 1109.96 376.05C1297.93 375.03 1479.59 401.76 1651.04 452.42L1651.04 729.73L27.23 730.58Z" />
					<path id="Path 79" class="shp68" d="M28.08 730.5C332.13 509.89 705.5 378.77 1109.96 376.3C1297.84 375.2 1479.51 401.85 1650.87 452.51L1650.87 729.56L28.08 730.5Z" />
					<path id="Path 80" class="shp69" d="M28.84 730.41C332.72 509.98 705.84 379.03 1109.96 376.47C1297.84 375.37 1479.42 402.02 1650.78 452.68L1650.78 729.48L28.84 730.41Z" />
					<path id="Path 81" class="shp70" d="M29.7 730.33C333.32 510.06 706.18 379.2 1109.96 376.64C1297.76 375.54 1479.34 402.19 1650.61 452.76L1650.61 729.31L29.7 730.33Z" />
					<path id="Path 82" class="shp71" d="M30.46 730.16C333.92 510.23 706.52 379.45 1109.96 376.81C1297.76 375.62 1479.25 402.27 1650.44 452.85L1650.44 729.22L30.46 730.16Z" />
					<path id="Path 83" class="shp72" d="M31.23 730.07C334.51 510.32 706.87 379.62 1110.05 376.98C1297.67 375.79 1479.17 402.44 1650.35 453.02L1650.35 729.05L31.23 730.07Z" />
					<path id="Path 84" class="shp73" d="M32.08 729.99C335.11 510.4 707.12 379.88 1109.96 377.15C1297.67 375.96 1479.08 402.61 1650.18 453.1L1650.18 728.96L32.08 729.99Z" />
					<path id="Path 85" class="shp74" d="M32.85 729.9C335.7 510.49 707.46 380.05 1110.05 377.32C1297.67 376.13 1479 402.7 1650.1 453.19L1650.1 728.79L32.85 729.9Z" />
					<path id="Path 86" class="shp75" d="M33.7 729.82C336.3 510.57 707.8 380.3 1110.05 377.58C1297.59 376.3 1478.91 402.87 1649.93 453.36L1649.93 728.71L33.7 729.82Z" />
					<path id="Path 87" class="shp76" d="M34.47 729.73C336.9 510.74 708.14 380.56 1110.05 377.75C1297.59 376.47 1478.83 403.04 1649.76 453.44L1649.76 728.62L34.47 729.73Z" />
					<path id="Path 88" class="shp77" d="M35.23 729.56C337.49 510.83 708.4 380.73 1110.05 377.92C1297.5 376.64 1478.74 403.21 1649.67 453.61L1649.67 728.45L35.23 729.56Z" />
					<path id="Path 89" class="shp78" d="M36.08 729.48C338.17 510.91 708.74 380.99 1110.05 378.09C1297.5 376.81 1478.57 403.29 1649.5 453.7L1649.5 728.37L36.08 729.48Z" />
					<path id="Path 90" class="shp79" d="M36.85 729.39C338.77 511.08 709.08 381.24 1110.13 378.26C1297.42 376.98 1478.57 403.46 1649.42 453.78L1649.42 728.2L36.85 729.39Z" />
					<path id="Path 91" class="shp80" d="M37.96 729.31C339.62 511.25 709.51 381.58 1110.13 378.6C1297.42 377.24 1478.4 403.72 1649.25 453.95L1649.25 728.11L37.96 729.31Z" />
					<path id="Path 92" class="shp81" d="M39.06 729.22C340.47 511.51 710.02 382.01 1110.13 378.94C1297.33 377.58 1478.4 403.89 1649.16 454.12L1649.16 728.11L39.06 729.22Z" />
					<path id="Path 93" class="shp82" d="M40.26 729.05C341.33 511.68 710.44 382.43 1110.22 379.28C1297.33 377.84 1478.32 404.14 1649.08 454.29L1649.08 728.03L40.26 729.05Z" />
					<path id="Path 94" class="shp83" d="M41.36 728.96C342.18 511.94 710.95 382.77 1110.22 379.54C1297.33 378.09 1478.23 404.4 1648.91 454.46L1648.91 727.94L41.36 728.96Z" />
					<path id="Path 95" class="shp84" d="M42.47 728.88C343.03 512.19 711.38 383.2 1110.22 379.88C1297.33 378.43 1478.14 404.57 1648.82 454.63L1648.82 727.86L42.47 728.88Z" />
					<path id="Path 96" class="shp85" d="M43.58 728.79C343.88 512.45 711.81 383.63 1110.31 380.22C1297.25 378.69 1478.06 404.83 1648.74 454.89L1648.74 727.77L43.58 728.79Z" />
					<path id="Path 97" class="shp86" d="M44.69 728.71C344.82 512.62 712.32 383.97 1110.31 380.56C1297.25 378.94 1477.97 405.08 1648.65 455.06L1648.65 727.69L44.69 728.71Z" />
					<path id="Path 98" class="shp87" d="M45.79 728.62C345.67 512.87 712.74 384.39 1110.31 380.82C1297.25 379.2 1477.89 405.25 1648.48 455.15L1648.48 727.6L45.79 728.62Z" />
					<path id="Path 99" class="shp88" d="M46.9 728.45C346.52 513.13 713.25 384.82 1110.31 381.16C1297.16 379.54 1477.89 405.51 1648.4 455.32L1648.4 727.6L46.9 728.45Z" />
					<path id="Path 100" class="shp89" d="M48.01 728.37C347.37 513.3 713.68 385.16 1110.39 381.5C1297.16 379.79 1477.8 405.76 1648.31 455.57L1648.31 727.52L48.01 728.37Z" />
					<path id="Path 101" class="shp90" d="M49.11 728.28C348.22 513.55 714.19 385.58 1110.39 381.84C1297.16 380.05 1477.72 406.02 1648.14 455.74L1648.14 727.43L49.11 728.28Z" />
					<path id="Path 102" class="shp91" d="M50.22 728.2C349.08 513.81 714.62 386.01 1110.39 382.18C1297.08 380.39 1477.63 406.19 1648.05 455.91L1648.05 727.35L50.22 728.2Z" />
					<path id="Path 103" class="shp92" d="M51.41 728.11C349.93 514.06 715.04 386.44 1110.48 382.43C1297.08 380.65 1477.55 406.44 1647.97 456.08L1647.97 727.26L51.41 728.11Z" />
					<path id="Path 104" class="shp93" d="M52.52 728.03C350.86 514.23 715.55 386.78 1110.48 382.77C1297.08 380.9 1477.46 406.7 1647.8 456.25L1647.8 727.18L52.52 728.03Z" />
					<path id="Path 105" class="shp94" d="M53.63 727.86C351.72 514.49 715.98 387.2 1110.48 383.11C1296.99 381.16 1477.38 406.87 1647.71 456.42L1647.71 727.18L53.63 727.86Z" />
					<path id="Path 106" class="shp95" d="M54.74 727.77C352.57 514.66 716.49 387.63 1110.56 383.37C1296.99 381.5 1477.38 407.12 1647.63 456.59L1647.63 727.09L54.74 727.77Z" />
					<path id="Path 107" class="shp96" d="M55.84 727.69C353.42 514.92 716.92 387.97 1110.56 383.71C1296.99 381.75 1477.29 407.38 1647.46 456.76L1647.46 727.01L55.84 727.69Z" />
					<path id="Path 108" class="shp97" d="M56.95 727.6C354.27 515.17 717.34 388.39 1110.56 384.05C1296.91 382.09 1477.21 407.64 1647.37 456.93L1647.37 726.92L56.95 727.6Z" />
					<path id="Path 109" class="shp98" d="M58.06 727.52C355.12 515.43 717.85 388.82 1110.65 384.39C1296.91 382.35 1477.12 407.81 1647.29 457.1L1647.29 726.84L58.06 727.52Z" />
					<path id="Path 110" class="shp99" d="M59.16 727.43C355.97 515.6 718.28 389.24 1110.65 384.73C1296.91 382.6 1477.04 408.06 1647.2 457.27L1647.2 726.75L59.16 727.43Z" />
					<path id="Path 111" class="shp100" d="M60.27 727.26C356.83 515.85 718.79 389.59 1110.65 384.99C1296.82 382.86 1476.95 408.32 1647.03 457.44L1647.03 726.67L60.27 727.26Z" />
					<path id="Path 112" class="shp101" d="M61.38 727.18C357.68 516.11 719.21 390.01 1110.65 385.33C1296.82 383.2 1476.87 408.49 1646.95 457.61L1646.95 726.67L61.38 727.18Z" />
					<path id="Path 113" class="shp102" d="M62.57 727.09C358.61 516.28 719.73 390.44 1110.73 385.67C1296.82 383.46 1476.87 408.74 1646.86 457.78L1646.86 726.58L62.57 727.09Z" />
					<path id="Path 114" class="shp103" d="M63.68 727.01C359.47 516.53 720.15 390.78 1110.73 386.01C1296.74 383.71 1476.78 409 1646.69 457.96L1646.69 726.5L63.68 727.01Z" />
					<path id="Path 115" class="shp104" d="M64.79 726.92C360.32 516.79 720.58 391.2 1110.82 386.35C1296.74 384.05 1476.7 409.25 1646.61 458.13L1646.61 726.41L64.79 726.92Z" />
					<path id="Path 116" class="shp105" d="M65.89 726.84C361.17 516.96 721.09 391.63 1110.82 386.61C1296.74 384.31 1476.61 409.42 1646.52 458.3L1646.52 726.33L65.89 726.84Z" />
					<path id="Path 117" class="shp106" d="M67 726.67C362.02 517.21 721.51 392.05 1110.82 386.95C1296.74 384.56 1476.53 409.68 1646.35 458.47L1646.35 726.24L67 726.67Z" />
					<path id="Path 118" class="shp107" d="M68.11 726.58C362.87 517.47 722.03 392.4 1110.82 387.29C1296.65 384.82 1476.44 409.93 1646.27 458.64L1646.27 726.24L68.11 726.58Z" />
					<path id="Path 119" class="shp108" d="M69.21 726.5C363.72 517.64 722.45 392.82 1110.9 387.63C1296.65 385.16 1476.36 410.1 1646.18 458.81L1646.18 726.16L69.21 726.5Z" />
					<path id="Path 120" class="shp109" d="M70.32 726.41C364.58 517.9 722.96 393.25 1110.9 387.88C1296.57 385.41 1476.27 410.36 1646.01 458.98L1646.01 726.07L70.32 726.41Z" />
					<path id="Path 121" class="shp110" d="M71.43 726.24C365.51 518.07 723.39 393.59 1110.9 388.22C1296.57 385.67 1476.27 410.62 1645.93 459.15L1645.93 725.98L71.43 726.24Z" />
					<path id="Path 122" class="shp111" d="M72.54 726.16C366.36 518.32 723.81 394.01 1110.99 388.56C1296.57 385.92 1476.19 410.79 1645.84 459.32L1645.84 725.9L72.54 726.16Z" />
					<path id="Path 123" class="shp112" d="M73.73 726.07C367.22 518.58 724.32 394.44 1110.99 388.9C1296.57 386.26 1476.1 411.04 1645.75 459.49L1645.75 725.81L73.73 726.07Z" />
					<path id="Path 124" class="shp113" d="M74.84 725.98C368.07 518.83 724.75 394.78 1110.99 389.16C1296.48 386.52 1476.02 411.3 1645.58 459.66L1645.58 725.73L74.84 725.98Z" />
					<path id="Path 125" class="shp114" d="M75.94 725.9C368.92 519 725.26 395.2 1111.07 389.5C1296.48 386.78 1475.93 411.55 1645.5 459.83L1645.5 725.64L75.94 725.9Z" />
					<path id="Path 126" class="shp115" d="M77.05 725.81C369.77 519.26 725.69 395.63 1111.07 389.84C1296.4 387.12 1475.85 411.72 1645.41 460L1645.41 725.64L77.05 725.81Z" />
					<path id="Path 127" class="shp116" d="M78.16 725.64C370.62 519.51 726.11 395.97 1111.07 390.18C1296.4 387.37 1475.76 411.98 1645.24 460.17L1645.24 725.56L78.16 725.64Z" />
					<path id="Path 128" class="shp117" d="M79.26 725.56C371.47 519.68 726.62 396.4 1111.16 390.44C1296.4 387.63 1475.76 412.23 1645.16 460.34L1645.16 725.47L79.26 725.56Z" />
					<path id="Path 129" class="shp118" d="M80.37 725.47C372.41 519.94 727.05 396.82 1111.16 390.78C1296.4 387.97 1475.67 412.4 1645.07 460.51L1645.07 725.39L80.37 725.47Z" />
					<path id="Path 130" class="shp119" d="M81.48 725.39C373.26 520.19 727.56 397.25 1111.16 391.12C1296.31 388.22 1475.59 412.66 1644.99 460.76L1644.99 725.3L81.48 725.39Z" />
					<path id="Path 131" class="shp120" d="M82.59 725.3C374.11 520.36 727.99 397.59 1111.24 391.46C1296.31 388.48 1475.5 412.91 1644.82 460.94L1644.82 725.22L82.59 725.3Z" />
					<path id="Path 132" class="shp121" d="M83.69 725.22C374.97 520.62 728.5 398.01 1111.24 391.71C1296.31 388.82 1475.42 413.08 1644.73 461.11L1644.73 725.22L83.69 725.22Z" />
					<path id="Path 133" class="shp122" d="M84.88 725.05C375.82 520.88 728.92 398.44 1111.24 392.05C1296.23 389.07 1475.33 413.34 1644.65 461.28L1644.65 725.13L84.88 725.05Z" />
					<path id="Path 134" class="shp123" d="M85.99 724.96C376.67 521.05 729.35 398.78 1111.24 392.4C1296.23 389.33 1475.25 413.6 1644.48 461.45L1644.48 725.05L85.99 724.96Z" />
					<path id="Path 135" class="shp124" d="M87.1 724.88C377.52 521.3 729.86 399.21 1111.33 392.74C1296.23 389.59 1475.25 413.77 1644.39 461.62L1644.39 724.96L87.1 724.88Z" />
					<path id="Path 136" class="shp125" d="M88.21 724.79C378.37 521.47 730.29 399.63 1111.33 392.99C1296.14 389.93 1475.16 414.02 1644.31 461.79L1644.31 724.88L88.21 724.79Z" />
					<path id="Path 137" class="shp126" d="M89.31 724.71C379.31 521.73 730.8 400.06 1111.41 393.33C1296.14 390.18 1475.08 414.28 1644.14 461.96L1644.14 724.79L89.31 724.71Z" />
					<path id="Path 138" class="shp127" d="M90.42 724.62C380.16 521.98 731.22 400.4 1111.41 393.67C1296.14 390.44 1474.99 414.53 1644.05 462.13L1644.05 724.79L90.42 724.62Z" />
					<path id="Path 139" class="shp128" d="M91.53 724.45C381.01 522.24 731.73 400.82 1111.41 394.01C1296.14 390.78 1474.91 414.7 1643.97 462.3L1643.97 724.71L91.53 724.45Z" />
					<path id="Path 140" class="shp129" d="M92.64 724.37C381.87 522.41 732.16 401.25 1111.41 394.35C1296.06 391.03 1474.82 414.96 1643.8 462.47L1643.8 724.62L92.64 724.37Z" />
					<path id="Path 141" class="shp130" d="M93.74 724.28C382.72 522.66 732.59 401.59 1111.5 394.61C1296.06 391.29 1474.74 415.21 1643.71 462.64L1643.71 724.54L93.74 724.28Z" />
					<path id="Path 142" class="shp131" d="M94.85 724.2C383.57 522.92 733.1 402.02 1111.5 394.95C1295.97 391.63 1474.65 415.38 1643.63 462.81L1643.63 724.45L94.85 724.2Z" />
					<path id="Path 143" class="shp132" d="M1643.63 462.98L1643.63 724.45L96.21 724.11C384.68 523 733.86 402.27 1111.92 395.2C1296.23 391.88 1474.82 415.64 1643.63 462.98Z" />
					<path id="Path 144" class="shp133" d="M1643.54 463.23L1643.54 724.37L97.57 724.11C385.7 523.17 734.54 402.53 1112.35 395.46C1296.48 392.14 1474.91 415.89 1643.54 463.23Z" />
					<path id="Path 145" class="shp134" d="M1643.54 463.4L1643.54 724.37L98.85 724.11C386.8 523.34 735.31 402.7 1112.69 395.72C1296.74 392.31 1474.99 416.15 1643.54 463.4Z" />
					<path id="Path 146" class="shp135" d="M1643.46 463.66L1643.46 724.37L100.22 724.11C387.83 523.43 736.08 402.95 1113.12 395.97C1296.99 392.57 1475.08 416.41 1643.46 463.66Z" />
					<path id="Path 147" class="shp136" d="M1643.46 463.83L1643.46 724.28L101.49 724.03C388.85 523.6 736.76 403.21 1113.54 396.23C1297.25 392.82 1475.25 416.58 1643.46 463.83Z" />
					<path id="Path 148" class="shp137" d="M1643.37 464L1643.37 724.28L102.86 724.03C389.96 523.77 737.53 403.46 1113.88 396.4C1297.5 393.08 1475.33 416.83 1643.37 464Z" />
					<path id="Path 149" class="shp138" d="M1643.37 464.26L1643.37 724.28L104.22 723.94C390.98 523.86 738.29 403.72 1114.31 396.65C1297.76 393.33 1475.42 417.09 1643.37 464.26Z" />
					<path id="Path 150" class="shp139" d="M1643.37 464.43L1643.29 724.2L105.5 723.94C392.09 524.03 738.97 403.89 1114.73 396.91C1298.01 393.59 1475.5 417.26 1643.37 464.43Z" />
					<path id="Path 151" class="shp140" d="M1643.29 464.6L1643.29 724.2L106.86 723.94C393.11 524.11 739.74 404.14 1115.07 397.16C1298.27 393.84 1475.59 417.51 1643.29 464.6Z" />
					<path id="Path 152" class="shp141" d="M1643.29 464.85L1643.29 724.2L108.14 723.86C394.13 524.28 740.51 404.4 1115.5 397.42C1298.53 394.1 1475.76 417.77 1643.29 464.85Z" />
					<path id="Path 153" class="shp142" d="M1643.2 465.02L1643.2 724.11L109.5 723.86C395.24 524.45 741.27 404.66 1115.93 397.67C1298.78 394.35 1475.85 418.02 1643.2 465.02Z" />
					<path id="Path 154" class="shp143" d="M1643.2 465.28L1643.2 724.11L110.86 723.86C396.26 524.54 741.95 404.91 1116.27 397.93C1299.04 394.61 1475.93 418.19 1643.2 465.28Z" />
					<path id="Path 155" class="shp144" d="M1643.11 465.45L1643.11 724.03L112.14 723.77C397.37 524.71 742.72 405.17 1116.69 398.18C1299.29 394.86 1476.02 418.45 1643.11 465.45Z" />
					<path id="Path 156" class="shp145" d="M1643.11 465.62L1643.11 724.03L113.5 723.77C398.39 524.88 743.49 405.34 1117.12 398.44C1299.46 395.03 1476.19 418.7 1643.11 465.62Z" />
					<path id="Path 157" class="shp146" d="M1643.03 465.87L1643.03 724.03L114.78 723.77C399.41 524.96 744.17 405.59 1117.54 398.61C1299.72 395.29 1476.27 418.96 1643.03 465.87Z" />
					<path id="Path 158" class="shp147" d="M1643.03 466.04L1643.03 723.94L116.14 723.69C400.52 525.13 744.94 405.85 1117.89 398.87C1299.97 395.55 1476.36 419.13 1643.03 466.04Z" />
					<path id="Path 159" class="shp148" d="M1643.03 466.3L1642.94 723.94L117.42 723.69C401.54 525.3 745.7 406.1 1118.31 399.12C1300.23 395.8 1476.44 419.39 1643.03 466.3Z" />
					<path id="Path 160" class="shp149" d="M1642.94 466.47L1642.94 723.94L118.78 723.69C402.65 525.39 746.47 406.36 1118.74 399.38C1300.57 396.06 1476.61 419.64 1642.94 466.47Z" />
					<path id="Path 161" class="shp150" d="M1642.94 466.64L1642.94 723.86L120.14 723.6C403.67 525.56 747.15 406.53 1119.08 399.63C1300.74 396.31 1476.7 419.81 1642.94 466.64Z" />
					<path id="Path 162" class="shp151" d="M1642.86 466.9L1642.86 723.86L121.42 723.6C404.78 525.64 747.92 406.78 1119.5 399.89C1301 396.57 1476.78 420.07 1642.86 466.9Z" />
					<path id="Path 163" class="shp152" d="M1642.86 467.07L1642.86 723.77L122.78 723.6C405.8 525.81 748.68 407.04 1119.93 400.14C1301.25 396.82 1476.87 420.32 1642.86 467.07Z" />
					<path id="Path 164" class="shp153" d="M1642.86 467.24L1642.77 723.77L124.15 723.52C406.9 525.98 749.36 407.3 1120.27 400.4C1301.51 397.08 1477.04 420.58 1642.86 467.24Z" />
					<path id="Path 165" class="shp154" d="M1642.77 467.49L1642.77 723.77L125.42 723.52C407.93 526.07 750.13 407.55 1120.7 400.57C1301.76 397.33 1477.12 420.83 1642.77 467.49Z" />
					<path id="Path 166" class="shp155" d="M1642.77 467.66L1642.77 723.69L126.79 723.52C408.95 526.24 750.9 407.72 1121.12 400.82C1302.02 397.59 1477.21 421 1642.77 467.66Z" />
					<path id="Path 167" class="shp156" d="M1642.69 467.92L1642.69 723.69L128.07 723.43C410.06 526.41 751.58 407.98 1121.46 401.08C1302.27 397.84 1477.29 421.26 1642.69 467.92Z" />
					<path id="Path 168" class="shp157" d="M1642.69 468.09L1642.69 723.69L129.43 723.43C411.08 526.5 752.34 408.23 1121.89 401.34C1302.53 398.01 1477.38 421.51 1642.69 468.09Z" />
					<path id="Path 169" class="shp158" d="M1642.6 468.26L1642.6 723.6L130.71 723.35C412.18 526.67 753.11 408.49 1122.31 401.59C1302.78 398.27 1477.55 421.77 1642.6 468.26Z" />
					<path id="Path 170" class="shp159" d="M1642.6 468.51L1642.6 723.6L132.07 723.35C413.21 526.84 753.88 408.74 1122.74 401.85C1303.04 398.53 1477.63 421.94 1642.6 468.51Z" />
					<path id="Path 171" class="shp160" d="M1642.6 468.68L1642.52 723.6L133.43 723.35C414.31 526.92 754.56 408.91 1123.08 402.1C1303.3 398.78 1477.72 422.2 1642.6 468.68Z" />
					<path id="Path 172" class="shp161" d="M1642.52 468.94L1642.52 723.52L134.71 723.26C415.34 527.09 755.33 409.17 1123.51 402.36C1303.55 399.04 1477.8 422.45 1642.52 468.94Z" />
					<path id="Path 173" class="shp162" d="M1642.52 469.11L1642.43 723.52L136.07 723.26C416.36 527.18 756.09 409.42 1123.93 402.61C1303.72 399.29 1477.89 422.71 1642.52 469.11Z" />
					<path id="Path 174" class="shp163" d="M1642.43 469.28L1642.43 723.52L137.35 723.26C417.47 527.35 756.77 409.68 1124.27 402.87C1303.98 399.55 1478.06 422.88 1642.43 469.28Z" />
					<path id="Path 175" class="shp164" d="M1642.43 469.53L1642.43 723.43L138.71 723.18C418.49 527.52 757.54 409.93 1124.7 403.04C1304.23 399.8 1478.14 423.13 1642.43 469.53Z" />
					<path id="Path 176" class="shp165" d="M1642.35 469.7L1642.35 723.43L140.07 723.18C419.59 527.6 758.31 410.19 1125.12 403.29C1304.49 400.06 1478.23 423.39 1642.35 469.7Z" />
					<path id="Path 177" class="shp166" d="M1642.35 469.96L1642.35 723.43L141.35 723.18C420.62 527.77 758.99 410.36 1125.46 403.55C1304.74 400.31 1478.32 423.64 1642.35 469.96Z" />
					<path id="Path 178" class="shp167" d="M1642.35 470.13L1642.26 723.35L142.71 723.09C421.64 527.94 759.75 410.62 1125.89 403.8C1305 400.48 1478.4 423.81 1642.35 470.13Z" />
					<path id="Path 179" class="shp168" d="M1642.26 470.3L1642.26 723.35L143.99 723.09C422.75 528.03 760.52 410.87 1126.32 404.06C1305.25 400.74 1478.57 424.07 1642.26 470.3Z" />
					<path id="Path 180" class="shp169" d="M1642.26 470.56L1642.26 723.26L145.35 723.09C423.77 528.2 761.29 411.13 1126.74 404.32C1305.51 400.99 1478.66 424.32 1642.26 470.56Z" />
					<path id="Path 181" class="shp170" d="M1642.18 470.73L1642.18 723.26L146.72 723C424.87 528.37 761.97 411.38 1127.08 404.57C1305.77 401.25 1478.74 424.58 1642.18 470.73Z" />
					<path id="Path 182" class="shp171" d="M1642.18 470.9L1642.18 723.26L147.99 723C425.9 528.45 762.74 411.55 1127.51 404.74C1306.02 401.51 1478.83 424.75 1642.18 470.9Z" />
					<path id="Path 183" class="shp172" d="M1642.18 471.15L1642.09 723.18L149.36 723C427 528.62 763.5 411.81 1127.93 405C1306.28 401.76 1479 425 1642.18 471.15Z" />
					<path id="Path 184" class="shp173" d="M1642.09 471.32L1642.09 723.18L150.63 722.92C428.03 528.79 764.18 412.06 1128.28 405.25C1306.53 402.02 1479.08 425.26 1642.09 471.32Z" />
					<path id="Path 185" class="shp174" d="M1642.09 471.58L1642.01 723.09L152 722.92C429.13 528.88 764.95 412.32 1128.7 405.51C1306.79 402.27 1479.17 425.43 1642.09 471.58Z" />
					<path id="Path 186" class="shp175" d="M1642.01 471.75L1642.01 723.09L153.36 722.92C430.16 529.05 765.72 412.57 1129.13 405.76C1307.04 402.53 1479.25 425.69 1642.01 471.75Z" />
					<path id="Path 187" class="shp176" d="M1642.01 471.92L1641.92 723.09L154.64 722.83C431.18 529.13 766.48 412.83 1129.47 406.02C1307.3 402.78 1479.42 425.94 1642.01 471.92Z" />
					<path id="Path 188" class="shp177" d="M1641.92 472.17L1641.92 723.09L156 722.83C432.28 529.3 767.16 413 1129.89 406.27C1307.55 403.04 1479.51 426.2 1641.92 472.17Z" />
					<path id="Path 189" class="shp178" d="M1641.92 472.34L1641.92 723L157.28 722.83C433.31 529.48 767.93 413.26 1130.32 406.53C1307.81 403.21 1479.59 426.37 1641.92 472.34Z" />
					<path id="Path 190" class="shp179" d="M1641.92 472.6L1641.84 723L158.64 722.75C434.41 529.56 768.7 413.51 1130.75 406.78C1307.98 403.46 1479.68 426.62 1641.92 472.6Z" />
					<path id="Path 191" class="shp180" d="M1641.84 472.77L1641.84 722.92L159.92 722.75C435.44 529.73 769.38 413.77 1131.09 407.04C1308.24 403.72 1479.76 426.88 1641.84 472.77Z" />
					<path id="Path 192" class="shp181" d="M1641.84 472.94L1641.75 722.92L161.28 722.75C436.46 529.9 770.14 414.02 1131.51 407.21C1308.49 403.97 1479.93 427.13 1641.84 472.94Z" />
					<path id="Path 193" class="shp182" d="M1641.75 473.2L1641.75 722.92L162.64 722.66C437.56 529.99 770.91 414.19 1131.94 407.47C1308.75 404.23 1480.02 427.3 1641.75 473.2Z" />
					<path id="Path 194" class="shp183" d="M1641.75 473.37L1641.67 722.83L163.92 722.66C438.59 530.16 771.59 414.45 1132.28 407.72C1309 404.49 1480.1 427.56 1641.75 473.37Z" />
					<path id="Path 195" class="shp184" d="M1641.67 473.54L1641.67 722.83L165.28 722.66C439.69 530.24 772.36 414.7 1132.7 407.98C1309.26 404.74 1480.19 427.81 1641.67 473.54Z" />
					<path id="Path 196" class="shp185" d="M1641.67 473.79L1641.58 722.83L166.56 722.58C440.72 530.41 773.13 414.96 1133.13 408.23C1309.51 405 1480.27 428.07 1641.67 473.79Z" />
					<path id="Path 197" class="shp186" d="M1641.67 473.96L1641.58 722.75L167.92 722.58C441.82 530.58 773.81 415.21 1133.47 408.49C1309.77 405.25 1480.44 428.24 1641.67 473.96Z" />
					<path id="Path 198" class="shp187" d="M1641.58 474.22L1641.58 722.75L169.2 722.58C442.85 530.67 774.57 415.47 1133.9 408.74C1310.02 405.51 1480.53 428.5 1641.58 474.22Z" />
					<path id="Path 199" class="shp188" d="M1641.58 474.39L1641.5 722.66L170.56 722.49C443.87 530.84 775.34 415.64 1134.32 408.91C1310.28 405.76 1480.61 428.75 1641.58 474.39Z" />
					<path id="Path 200" class="shp189" d="M1641.5 474.56L1641.5 722.66L171.93 722.49C444.97 531.01 776.11 415.89 1134.75 409.17C1310.53 406.02 1480.78 429.01 1641.5 474.56Z" />
					<path id="Path 201" class="shp190" d="M1641.5 474.81L1641.41 722.66L173.2 722.49C446 531.18 776.79 416.15 1135.09 409.42C1310.79 406.27 1480.87 429.18 1641.5 474.81Z" />
					<path id="Path 202" class="shp191" d="M1641.5 474.98L1641.41 722.58L174.57 722.41C447.1 531.26 777.55 416.41 1135.51 409.68C1311.05 406.44 1480.96 429.43 1641.5 474.98Z" />
					<path id="Path 203" class="shp192" d="M1641.41 475.24L1641.41 722.58L175.93 722.41C448.13 531.43 778.32 416.66 1135.94 409.93C1311.3 406.7 1481.04 429.69 1641.41 475.24Z" />
					<path id="Path 204" class="shp193" d="M1641.41 475.41L1641.33 722.58L177.21 722.41C449.23 531.52 779.09 416.83 1136.28 410.19C1311.56 406.95 1481.13 429.94 1641.41 475.41Z" />
					<path id="Path 205" class="shp194" d="M1641.33 475.58L1641.33 722.49L178.57 722.32C450.25 531.69 779.77 417.09 1136.71 410.45C1311.73 407.21 1481.3 430.11 1641.33 475.58Z" />
					<path id="Path 206" class="shp195" d="M1641.33 475.84L1641.24 722.49L179.85 722.32C451.28 531.86 780.54 417.34 1137.13 410.7C1311.98 407.47 1481.38 430.37 1641.33 475.84Z" />
					<path id="Path 207" class="shp196" d="M1641.24 476.01L1641.24 722.49L181.21 722.32C452.38 531.94 781.3 417.6 1137.47 410.96C1312.24 407.72 1481.47 430.62 1641.24 476.01Z" />
					<path id="Path 208" class="shp197" d="M1641.24 476.26L1641.16 722.41L182.57 722.24C453.41 532.11 781.98 417.85 1137.9 411.21C1312.49 407.98 1481.55 430.88 1641.24 476.26Z" />
					<path id="Path 209" class="shp198" d="M1641.24 476.43L1641.16 722.41L183.85 722.24C454.51 532.2 782.75 418.02 1138.33 411.38C1312.75 408.23 1481.72 431.05 1641.24 476.43Z" />
					<path id="Path 210" class="shp199" d="M1641.16 476.6L1641.07 722.41L185.21 722.15C455.54 532.37 783.52 418.28 1138.75 411.64C1313 408.49 1481.81 431.31 1641.16 476.6Z" />
					<path id="Path 211" class="shp200" d="M1641.16 476.86L1641.07 722.32L186.49 722.15C456.56 532.54 784.2 418.53 1139.09 411.89C1313.26 408.74 1481.89 431.56 1641.16 476.86Z" />
					<path id="Path 212" class="shp200" d="M1641.07 477.03L1641.07 722.32L187.85 722.15C457.66 532.71 784.96 418.79 1139.52 412.15C1313.52 409 1481.98 431.82 1641.07 477.03Z" />
					<path id="Path 213" class="shp201" d="M1641.07 477.2L1640.99 722.32L189.13 722.07C458.69 532.8 785.73 419.04 1139.94 412.4C1313.77 409.17 1482.06 431.99 1641.07 477.2Z" />
					<path id="Path 214" class="shp202" d="M1640.99 477.45L1640.99 722.24L190.49 722.07C459.79 532.97 786.41 419.22 1140.28 412.66C1314.03 409.42 1482.23 432.24 1640.99 477.45Z" />
					<path id="Path 215" class="shp203" d="M1640.99 477.62L1640.9 722.24L191.86 722.07C460.82 533.05 787.18 419.47 1140.71 412.91C1314.28 409.68 1482.32 432.5 1640.99 477.62Z" />
					<path id="Path 216" class="shp204" d="M1640.9 477.88L1640.9 722.24L193.13 722.07C461.92 533.22 787.95 419.73 1141.14 413.17C1314.54 409.93 1482.4 432.75 1640.9 477.88Z" />
					<path id="Path 217" class="shp205" d="M1640.9 478.05L1640.82 722.15L194.5 721.98C462.94 533.39 788.71 419.98 1141.48 413.34C1314.79 410.19 1482.49 432.92 1640.9 478.05Z" />
					<path id="Path 218" class="shp206" d="M1640.9 478.22L1640.82 722.15L195.86 721.98C464.05 533.48 789.39 420.24 1141.9 413.6C1315.05 410.45 1482.66 433.18 1640.9 478.22Z" />
					<path id="Path 219" class="shp207" d="M1640.82 478.47L1640.82 722.07L197.14 721.9C465.07 533.65 790.16 420.49 1142.33 413.85C1315.3 410.7 1482.74 433.43 1640.82 478.47Z" />
					<path id="Path 220" class="shp208" d="M1640.82 478.64L1640.73 722.07L198.5 721.9C466.1 533.73 790.93 420.66 1142.75 414.11C1315.56 410.96 1482.83 433.6 1640.82 478.64Z" />
					<path id="Path 221" class="shp209" d="M1640.73 478.9L1640.73 722.07L199.78 721.9C467.2 533.9 791.61 420.92 1143.09 414.36C1315.81 411.21 1482.91 433.86 1640.73 478.9Z" />
					<path id="Path 222" class="shp210" d="M1640.73 479.07L1640.64 721.98L201.14 721.81C468.23 534.07 792.37 421.17 1143.52 414.62C1316.07 411.47 1483 434.12 1640.73 479.07Z" />
					<path id="Path 223" class="shp211" d="M1640.73 479.33L1640.64 721.98L202.42 721.81C469.33 534.24 793.14 421.43 1143.95 414.87C1316.24 411.72 1483.17 434.37 1640.73 479.33Z" />
					<path id="Path 224" class="shp212" d="M1640.64 479.5L1640.56 721.9L203.78 721.81C470.35 534.33 793.91 421.68 1144.29 415.13C1316.5 411.89 1483.25 434.54 1640.64 479.5Z" />
					<path id="Path 225" class="shp213" d="M1640.64 479.67L1640.56 721.9L205.14 721.73C471.38 534.5 794.59 421.85 1144.71 415.38C1316.75 412.15 1483.34 434.8 1640.64 479.67Z" />
					<path id="Path 226" class="shp214" d="M1640.56 479.92L1640.56 721.9L206.42 721.73C472.48 534.67 795.35 422.11 1145.14 415.64C1317.01 412.4 1483.43 435.05 1640.56 479.92Z" />
					<path id="Path 227" class="shp215" d="M1640.56 480.09L1640.47 721.81L207.78 721.64C473.51 534.75 796.12 422.37 1145.48 415.81C1317.26 412.66 1483.51 435.31 1640.56 480.09Z" />
					<path id="Path 228" class="shp216" d="M1640.47 480.26L1640.47 721.81L209.06 721.64C474.61 534.92 796.8 422.62 1145.91 416.06C1317.52 412.91 1483.68 435.48 1640.47 480.26Z" />
					<path id="Path 229" class="shp217" d="M1640.47 480.52L1640.39 721.81L210.42 721.64C475.63 535.01 797.57 422.88 1146.33 416.32C1317.77 413.17 1483.77 435.73 1640.47 480.52Z" />
					<path id="Path 230" class="shp218" d="M1640.47 480.69L1640.39 721.73L211.78 721.64C476.74 535.18 798.34 423.13 1146.76 416.58C1318.03 413.43 1483.85 435.99 1640.47 480.69Z" />
					<path id="Path 231" class="shp219" d="M1640.39 480.86L1640.3 721.73L213.06 721.56C477.76 535.26 799.02 423.3 1147.1 416.83C1318.28 413.68 1483.94 436.24 1640.39 480.86Z" />
					<path id="Path 232" class="shp220" d="M1640.39 481.11L1640.3 721.73L214.43 721.56C478.79 535.44 799.78 423.56 1147.52 417.09C1318.54 413.94 1484.11 436.41 1640.39 481.11Z" />
					<path id="Path 233" class="shp221" d="M1640.3 481.28L1640.22 721.64L215.7 721.56C479.89 535.61 800.55 423.81 1147.95 417.34C1318.8 414.19 1484.19 436.67 1640.3 481.28Z" />
					<path id="Path 234" class="shp222" d="M1640.3 481.54L1640.22 721.64L217.07 721.47C480.92 535.78 801.23 424.07 1148.29 417.51C1319.05 414.45 1484.28 436.92 1640.3 481.54Z" />
					<path id="Path 235" class="shp223" d="M1640.22 481.71L1640.22 721.64L218.34 721.47C482.02 535.86 802 424.24 1148.72 417.77C1319.31 414.62 1484.36 437.18 1640.22 481.71Z" />
					<path id="Path 236" class="shp224" d="M1640.22 481.88L1640.13 721.56L219.71 721.47C483.04 536.03 802.76 424.49 1149.14 418.02C1319.56 414.87 1484.45 437.35 1640.22 481.88Z" />
					<path id="Path 237" class="shp225" d="M1640.22 482.14L1640.13 721.56L221.07 721.39C484.15 536.12 803.53 424.75 1149.48 418.28C1319.82 415.13 1484.62 437.61 1640.22 482.14Z" />
					<path id="Path 238" class="shp226" d="M1640.13 482.31L1640.05 721.47L222.35 721.39C485.17 536.29 804.21 425 1149.91 418.53C1319.99 415.38 1484.7 437.86 1640.13 482.31Z" />
					<path id="Path 239" class="shp227" d="M1640.13 482.56L1640.05 721.47L223.71 721.39C486.28 536.46 804.98 425.26 1150.33 418.79C1320.33 415.64 1484.79 438.12 1640.13 482.56Z" />
					<path id="Path 240" class="shp228" d="M1640.05 482.73L1639.96 721.47L225.07 721.3C487.3 536.54 805.75 425.52 1150.76 419.04C1320.5 415.89 1484.96 438.37 1640.05 482.73Z" />
					<path id="Path 241" class="shp229" d="M1640.05 482.9L1639.96 721.39L226.35 721.3C488.32 536.71 806.43 425.69 1151.1 419.3C1320.75 416.15 1485.04 438.54 1640.05 482.9Z" />
					<path id="Path 242" class="shp230" d="M1640.05 483.16L1639.96 721.39L227.71 721.22C489.43 536.88 807.19 425.94 1151.53 419.56C1321.01 416.41 1485.13 438.8 1640.05 483.16Z" />
					<path id="Path 243" class="shp231" d="M1639.96 483.33L1639.88 721.39L228.99 721.22C490.45 536.97 807.96 426.2 1151.95 419.81C1321.27 416.66 1485.21 439.05 1639.96 483.33Z" />
					<path id="Path 244" class="shp232" d="M1639.96 483.58L1639.88 721.3L230.35 721.22C491.56 537.14 808.73 426.45 1152.29 420.07C1321.52 416.92 1485.3 439.22 1639.96 483.58Z" />
					<path id="Path 245" class="shp233" d="M1639.88 483.75L1639.79 721.3L231.71 721.13C492.58 537.31 809.41 426.71 1152.72 420.24C1321.78 417.17 1485.47 439.48 1639.88 483.75Z" />
					<path id="Path 246" class="shp234" d="M1639.88 483.92L1639.79 721.3L232.99 721.13C493.61 537.39 810.17 426.88 1153.14 420.49C1322.03 417.43 1485.55 439.73 1639.88 483.92Z" />
					<path id="Path 247" class="shp235" d="M1639.79 484.18L1639.71 721.22L234.35 721.13C494.71 537.56 810.94 427.13 1153.49 420.75C1322.29 417.68 1485.64 439.99 1639.79 484.18Z" />
					<path id="Path 248" class="shp236" d="M1639.79 484.35L1639.71 721.22L235.63 721.05C495.73 537.65 811.62 427.39 1153.91 421C1322.54 417.85 1485.72 440.16 1639.79 484.35Z" />
					<path id="Path 249" class="shp237" d="M1639.79 484.6L1639.71 721.22L236.99 721.05C496.84 537.82 812.39 427.64 1154.34 421.26C1322.8 418.11 1485.81 440.42 1639.79 484.6Z" />
					<path id="Path 250" class="shp238" d="M1639.71 484.78L1639.62 721.13L238.27 721.05C497.86 537.99 813.15 427.9 1154.68 421.51C1323.05 418.36 1485.98 440.67 1639.71 484.78Z" />
					<path id="Path 251" class="shp239" d="M1639.71 484.95L1639.62 721.13L239.63 720.96C498.89 538.07 813.92 428.07 1155.1 421.68C1323.31 418.62 1486.07 440.93 1639.71 484.95Z" />
					<path id="Path 252" class="shp240" d="M1639.62 485.2L1639.54 721.05L241 720.96C499.99 538.24 814.6 428.33 1155.53 421.94C1323.48 418.87 1486.15 441.1 1639.62 485.2Z" />
					<path id="Path 253" class="shp241" d="M1639.62 485.37L1639.54 721.05L242.28 720.96C501.01 538.42 815.37 428.58 1155.96 422.2C1323.74 419.13 1486.24 441.35 1639.62 485.37Z" />
					<path id="Path 254" class="shp242" d="M1639.54 485.63L1639.45 721.05L243.64 720.88C502.12 538.5 816.05 428.84 1156.3 422.45C1323.99 419.39 1486.41 441.61 1639.54 485.63Z" />
					<path id="Path 255" class="shp243" d="M1639.54 485.8L1639.45 720.96L244.92 720.88C503.14 538.67 816.82 429.09 1156.72 422.71C1324.25 419.64 1486.49 441.78 1639.54 485.8Z" />
					<path id="Path 256" class="shp244" d="M1639.54 485.97L1639.37 720.96L246.28 720.88C504.25 538.84 817.58 429.35 1157.15 422.96C1324.5 419.9 1486.58 442.03 1639.54 485.97Z" />
					<path id="Path 257" class="shp245" d="M1639.45 486.22L1639.37 720.96L247.64 720.79C505.27 538.93 818.35 429.52 1157.49 423.22C1324.76 420.15 1486.66 442.29 1639.45 486.22Z" />
					<path id="Path 258" class="shp246" d="M1639.45 486.39L1639.37 720.88L248.92 720.79C506.38 539.1 819.12 429.77 1157.91 423.47C1325.01 420.32 1486.83 442.54 1639.45 486.39Z" />
					<path id="Path 259" class="shp247" d="M1639.37 486.56L1639.28 720.88L250.28 720.79C507.4 539.27 819.8 430.03 1158.34 423.73C1325.27 420.58 1486.92 442.71 1639.37 486.56Z" />
					<path id="Path 260" class="shp248" d="M1639.37 486.82L1639.28 720.88L251.56 720.71C508.42 539.35 820.56 430.28 1158.68 423.98C1325.52 420.83 1487 442.97 1639.37 486.82Z" />
					<path id="Path 261" class="shp249" d="M1639.37 486.99L1639.2 720.79L252.92 720.71C509.53 539.52 821.33 430.54 1159.11 424.24C1325.78 421.09 1487.09 443.23 1639.37 486.99Z" />
					<path id="Path 262" class="shp250" d="M1639.28 487.16L1639.2 720.79L254.28 720.71C510.55 539.61 822.01 430.71 1159.53 424.41C1326.04 421.34 1487.17 443.48 1639.28 487.16Z" />
					<path id="Path 263" class="shp251" d="M1639.28 487.41L1639.2 720.71L255.56 720.62C511.66 539.78 822.78 430.96 1159.87 424.66C1326.29 421.6 1487.34 443.74 1639.28 487.41Z" />
					<path id="Path 264" class="shp252" d="M1639.2 487.58L1639.11 720.71L256.92 720.62C512.68 539.95 823.55 431.22 1160.3 424.92C1326.55 421.85 1487.43 443.91 1639.2 487.58Z" />
					<path id="Path 265" class="shp253" d="M1639.2 487.84L1639.11 720.71L258.2 720.62C513.79 540.03 824.23 431.48 1160.72 425.18C1326.8 422.11 1487.51 444.16 1639.2 487.84Z" />
					<path id="Path 266" class="shp253" d="M1639.11 488.01L1639.03 720.62L259.56 720.54C514.81 540.2 824.99 431.73 1161.15 425.43C1327.06 422.37 1487.6 444.42 1639.11 488.01Z" />
					<path id="Path 267" class="shp254" d="M1639.11 488.27L1639.03 720.62L260.84 720.54C515.83 540.37 825.76 431.99 1161.49 425.69C1327.31 422.62 1487.68 444.59 1639.11 488.27Z" />
					<path id="Path 268" class="shp255" d="M1639.03 488.44L1638.94 720.62L262.2 720.54C516.94 540.46 826.44 432.16 1161.92 425.94C1327.57 422.88 1487.85 444.84 1639.03 488.44Z" />
					<path id="Path 269" class="shp256" d="M1639.03 488.61L1638.94 720.54L263.57 720.45C517.96 540.63 827.21 432.41 1162.34 426.11C1327.82 423.13 1487.94 445.1 1639.03 488.61Z" />
					<path id="Path 270" class="shp257" d="M1639.03 488.86L1638.86 720.54L264.84 720.45C519.07 540.8 827.97 432.67 1162.68 426.37C1327.99 423.39 1488.02 445.35 1639.03 488.86Z" />
					<path id="Path 271" class="shp258" d="M1638.94 489.03L1638.86 720.54L266.21 720.45C520.09 540.88 828.74 432.92 1163.11 426.62C1328.25 423.56 1488.11 445.61 1638.94 489.03Z" />
					<path id="Path 272" class="shp259" d="M1638.94 489.29L1638.86 720.45L267.48 720.37C521.11 541.05 829.42 433.18 1163.53 426.88C1328.5 423.81 1488.19 445.78 1638.94 489.29Z" />
					<path id="Path 273" class="shp260" d="M1638.86 489.46L1638.77 720.45L268.85 720.37C522.22 541.14 830.19 433.35 1163.88 427.13C1328.76 424.07 1488.36 446.04 1638.86 489.46Z" />
					<path id="Path 274" class="shp261" d="M1638.86 489.63L1638.77 720.45L270.21 720.37C523.24 541.31 830.95 433.6 1164.3 427.39C1329.02 424.32 1488.45 446.29 1638.86 489.63Z" />
					<path id="Path 275" class="shp262" d="M1638.77 489.88L1638.69 720.37L271.49 720.28C524.35 541.48 831.64 433.86 1164.73 427.64C1329.27 424.58 1488.54 446.55 1638.77 489.88Z" />
					<path id="Path 276" class="shp263" d="M1638.77 490.05L1638.69 720.37L272.85 720.28C525.37 541.57 832.4 434.12 1165.07 427.9C1329.53 424.83 1488.62 446.72 1638.77 490.05Z" />
					<path id="Path 277" class="shp264" d="M1638.77 490.22L1638.6 720.37L274.13 720.28C526.48 541.74 833.17 434.37 1165.49 428.16C1329.78 425.09 1488.79 446.97 1638.77 490.22Z" />
					<path id="Path 278" class="shp265" d="M1638.69 490.48L1638.6 720.28L275.49 720.2C527.5 541.91 833.94 434.63 1165.92 428.41C1330.04 425.35 1488.88 447.23 1638.69 490.48Z" />
					<path id="Path 279" class="shp265" d="M1638.69 490.65L1638.6 720.28L276.85 720.2C528.61 541.99 834.62 434.8 1166.35 428.58C1330.29 425.6 1488.96 447.4 1638.69 490.65Z" />
					<path id="Path 280" class="shp266" d="M1638.6 490.91L1638.52 720.2L278.13 720.2C529.63 542.16 835.38 435.05 1166.69 428.84C1330.55 425.86 1489.05 447.65 1638.6 490.91Z" />
					<path id="Path 281" class="shp267" d="M1638.6 491.08L1638.52 720.2L279.49 720.11C530.65 542.33 836.15 435.31 1167.11 429.09C1330.8 426.11 1489.22 447.91 1638.6 491.08Z" />
					<path id="Path 282" class="shp268" d="M1638.6 491.25L1638.43 720.2L280.77 720.11C531.76 542.42 836.83 435.56 1167.54 429.35C1331.06 426.37 1489.3 448.16 1638.6 491.25Z" />
					<path id="Path 283" class="shp269" d="M1638.52 491.5L1638.43 720.11L282.13 720.02C532.78 542.59 837.6 435.73 1167.96 429.6C1331.32 426.54 1489.39 448.33 1638.52 491.5Z" />
					<path id="Path 284" class="shp270" d="M1638.52 491.67L1638.35 720.11L283.5 720.02C533.89 542.67 838.36 435.99 1168.3 429.86C1331.57 426.79 1489.47 448.59 1638.52 491.67Z" />
					<path id="Path 285" class="shp271" d="M1638.43 491.93L1638.35 720.11L284.77 720.02C534.91 542.84 839.05 436.24 1168.73 430.11C1331.74 427.05 1489.64 448.84 1638.43 491.93Z" />
					<path id="Path 286" class="shp271" d="M1638.43 492.1L1638.35 720.02L286.14 719.94C535.93 543.01 839.81 436.5 1169.16 430.28C1332 427.3 1489.73 449.1 1638.43 492.1Z" />
					<path id="Path 287" class="shp272" d="M1638.35 492.27L1638.26 720.02L287.41 719.94C537.04 543.1 840.58 436.75 1169.5 430.54C1332.25 427.56 1489.81 449.27 1638.35 492.27Z" />
					<path id="Path 288" class="shp272" d="M1638.35 492.52L1638.26 719.94L288.78 719.94C538.06 543.27 841.35 437.01 1169.92 430.79C1332.51 427.81 1489.9 449.53 1638.35 492.52Z" />
					<path id="Path 289" class="shp273" d="M1638.35 492.69L1638.18 719.94L290.14 719.94C539.17 543.44 842.03 437.18 1170.35 431.05C1332.76 428.07 1489.98 449.78 1638.35 492.69Z" />
					<path id="Path 290" class="shp274" d="M1638.26 492.86L1638.18 719.94L291.42 719.85C540.19 543.52 842.79 437.44 1170.69 431.31C1333.02 428.33 1490.15 450.04 1638.26 492.86Z" />
					<path id="Path 291" class="shp274" d="M1638.26 493.12L1638.09 719.85L292.78 719.85C541.3 543.69 843.56 437.69 1171.11 431.56C1333.27 428.58 1490.24 450.21 1638.26 493.12Z" />
					<path id="Path 292" class="shp275" d="M1638.18 493.29L1638.09 719.85L294.06 719.77C542.32 543.86 844.24 437.95 1171.54 431.82C1333.53 428.84 1490.32 450.46 1638.18 493.29Z" />
					<path id="Path 293" class="shp276" d="M1638.18 493.54L1638 719.85L295.42 719.77C543.34 543.95 845.01 438.2 1171.88 432.07C1333.79 429.09 1490.41 450.72 1638.18 493.54Z" />
					<path id="Path 294" class="shp277" d="M1638.09 493.72L1638 719.77L296.7 719.77C544.45 544.12 845.77 438.37 1172.31 432.33C1334.04 429.26 1490.49 450.97 1638.09 493.72Z" />
					<path id="Path 295" class="shp278" d="M1638.09 493.89L1638 719.77L298.06 719.68C545.47 544.29 846.46 438.63 1172.73 432.58C1334.3 429.52 1490.66 451.14 1638.09 493.89Z" />
					<path id="Path 296" class="shp279" d="M1638.09 494.14L1637.92 719.77L299.42 719.68C546.58 544.38 847.22 438.88 1173.07 432.75C1334.55 429.77 1490.75 451.4 1638.09 494.14Z" />
					<path id="Path 297" class="shp280" d="M1638 494.31L1637.92 719.68L300.7 719.68C547.6 544.55 847.99 439.14 1173.5 433.01C1334.81 430.03 1490.83 451.65 1638 494.31Z" />
					<path id="Path 298" class="shp281" d="M1638 494.57L1637.83 719.68L302.06 719.6C548.71 544.63 848.75 439.39 1173.93 433.26C1335.06 430.28 1490.92 451.91 1638 494.57Z" />
					<path id="Path 299" class="shp282" d="M1637.92 494.74L1637.83 719.68L303.43 719.6C549.73 544.8 849.44 439.65 1174.35 433.52C1335.32 430.54 1491.09 452.08 1637.92 494.74Z" />
					<path id="Path 300" class="shp283" d="M1637.92 494.91L1637.75 719.6L304.7 719.51C550.75 544.97 850.2 439.82 1174.69 433.77C1335.57 430.79 1491.18 452.34 1637.92 494.91Z" />
					<path id="Path 301" class="shp284" d="M1637.92 495.16L1637.75 719.6L306.07 719.51C551.86 545.06 850.97 440.08 1175.12 434.03C1335.83 431.05 1491.26 452.59 1637.92 495.16Z" />
					<path id="Path 302" class="shp285" d="M1637.83 495.33L1637.75 719.6L307.34 719.51C552.88 545.23 851.65 440.33 1175.54 434.29C1336 431.31 1491.35 452.85 1637.83 495.33Z" />
					<path id="Path 303" class="shp286" d="M1637.83 495.59L1637.66 719.51L308.71 719.51C553.99 545.4 852.42 440.59 1175.97 434.54C1336.26 431.56 1491.52 453.02 1637.83 495.59Z" />
					<path id="Path 304" class="shp287" d="M1637.75 495.76L1637.66 719.51L309.98 719.43C555.01 545.48 853.18 440.76 1176.31 434.71C1336.51 431.82 1491.6 453.27 1637.75 495.76Z" />
					<path id="Path 305" class="shp288" d="M1637.75 495.93L1637.58 719.43L311.35 719.43C556.12 545.65 853.86 441.01 1176.74 434.97C1336.77 432.07 1491.69 453.53 1637.75 495.93Z" />
					<path id="Path 306" class="shp289" d="M1637.66 496.18L1637.58 719.43L312.71 719.43C557.14 545.82 854.63 441.27 1177.16 435.22C1337.02 432.24 1491.77 453.78 1637.66 496.18Z" />
					<path id="Path 307" class="shp290" d="M1637.66 496.35L1637.49 719.43L313.99 719.34C558.16 545.91 855.4 441.52 1177.5 435.48C1337.28 432.5 1491.86 453.95 1637.66 496.35Z" />
					<path id="Path 308" class="shp291" d="M1637.66 496.52L1637.49 719.34L315.35 719.34C559.27 546.08 856.16 441.78 1177.93 435.73C1337.53 432.75 1492.03 454.21 1637.66 496.52Z" />
					<path id="Path 309" class="shp292" d="M1637.58 496.78L1637.49 719.34L316.63 719.34C560.29 546.16 856.85 442.03 1178.35 435.99C1337.79 433.01 1492.11 454.46 1637.58 496.78Z" />
					<path id="Path 310" class="shp293" d="M1637.58 496.95L1637.41 719.34L317.99 719.26C561.4 546.33 857.61 442.29 1178.69 436.24C1338.04 433.26 1492.2 454.72 1637.58 496.95Z" />
					<path id="Path 311" class="shp294" d="M1637.49 497.21L1637.41 719.26L319.35 719.26C562.42 546.5 858.38 442.46 1179.12 436.5C1338.3 433.52 1492.28 454.89 1637.49 497.21Z" />
					<path id="Path 312" class="shp295" d="M1637.49 497.38L1637.32 719.26L320.63 719.17C563.44 546.59 859.06 442.71 1179.55 436.67C1338.55 433.77 1492.37 455.15 1637.49 497.38Z" />
					<path id="Path 313" class="shp296" d="M1637.41 497.55L1637.32 719.26L321.99 719.17C564.55 546.76 859.83 442.97 1179.89 436.92C1338.81 434.03 1492.54 455.4 1637.41 497.55Z" />
					<path id="Path 314" class="shp297" d="M1637.41 497.8L1637.24 719.17L323.27 719.17C565.57 546.93 860.59 443.23 1180.31 437.18C1339.07 434.29 1492.62 455.57 1637.41 497.8Z" />
					<path id="Path 315" class="shp298" d="M1637.41 497.97L1637.24 719.17L324.63 719.09C566.68 547.01 861.27 443.4 1180.74 437.44C1339.24 434.54 1492.71 455.83 1637.41 497.97Z" />
					<path id="Path 316" class="shp299" d="M1637.32 498.23L1637.24 719.17L325.99 719.09C567.7 547.18 862.04 443.65 1181.16 437.69C1339.58 434.8 1492.88 456.08 1637.32 498.23Z" />
					<path id="Path 317" class="shp300" d="M1637.32 498.4L1637.15 719.09L327.27 719.09C568.81 547.36 862.81 443.91 1181.51 437.95C1339.83 435.05 1492.96 456.34 1637.32 498.4Z" />
					<path id="Path 318" class="shp300" d="M1637.24 498.57L1637.15 719.09L328.64 719C569.83 547.44 863.57 444.16 1181.93 438.2C1340.09 435.22 1493.05 456.51 1637.24 498.57Z" />
					<path id="Path 319" class="shp301" d="M1637.24 498.82L1637.07 719L329.91 719C570.85 547.61 864.26 444.42 1182.36 438.46C1340.26 435.48 1493.13 456.76 1637.24 498.82Z" />
					<path id="Path 320" class="shp301" d="M1637.24 498.99L1637.07 719L331.28 719C571.96 547.78 865.02 444.67 1182.7 438.71C1340.51 435.73 1493.22 457.02 1637.24 498.99Z" />
					<path id="Path 321" class="shp302" d="M1637.15 499.16L1636.98 719L332.64 718.92C572.98 547.87 865.79 444.84 1183.12 438.88C1340.77 435.99 1493.39 457.27 1637.15 499.16Z" />
					<path id="Path 322" class="shp303" d="M1637.15 499.42L1636.98 718.92L333.92 718.92C574.09 548.04 866.55 445.1 1183.55 439.14C1341.02 436.24 1493.47 457.44 1637.15 499.42Z" />
					<path id="Path 323" class="shp304" d="M1637.07 499.59L1636.98 718.92L335.28 718.92C575.11 548.21 867.24 445.35 1183.89 439.39C1341.28 436.5 1493.56 457.7 1637.07 499.59Z" />
					<path id="Path 324" class="shp305" d="M1637.07 499.85L1636.9 718.92L336.56 718.83C576.22 548.29 868 445.61 1184.32 439.65C1341.54 436.75 1493.65 457.96 1637.07 499.85Z" />
					<path id="Path 325" class="shp306" d="M1636.98 500.02L1636.9 718.83L337.92 718.83C577.24 548.46 868.77 445.86 1184.74 439.9C1341.79 437.01 1493.73 458.21 1636.98 500.02Z" />
					<path id="Path 326" class="shp307" d="M1636.98 500.19L1636.81 718.83L339.2 718.83C578.26 548.55 869.45 446.04 1185.17 440.16C1342.05 437.27 1493.9 458.38 1636.98 500.19Z" />
					<path id="Path 327" class="shp307" d="M1636.98 500.44L1636.81 718.83L340.56 718.75C579.37 548.72 870.22 446.29 1185.51 440.42C1342.3 437.52 1493.99 458.64 1636.98 500.44Z" />
					<path id="Path 328" class="shp308" d="M1636.9 500.61L1636.73 718.75L341.92 718.75C580.39 548.89 870.98 446.55 1185.93 440.67C1342.56 437.69 1494.07 458.89 1636.9 500.61Z" />
					<path id="Path 329" class="shp309" d="M1636.9 500.87L1636.73 718.75L343.2 718.75C581.5 548.97 871.66 446.8 1186.36 440.84C1342.81 437.95 1494.16 459.15 1636.9 500.87Z" />
					<path id="Path 330" class="shp310" d="M1636.81 501.04L1636.64 718.66L344.56 718.66C582.52 549.14 872.43 447.06 1186.7 441.1C1343.07 438.2 1494.33 459.32 1636.81 501.04Z" />
					<path id="Path 331" class="shp310" d="M1636.81 501.21L1636.64 718.66L345.84 718.66C583.54 549.31 873.2 447.31 1187.13 441.35C1343.32 438.46 1494.41 459.57 1636.81 501.21Z" />
					<path id="Path 332" class="shp311" d="M1636.73 501.46L1636.64 718.66L347.2 718.66C584.65 549.4 873.88 447.48 1187.55 441.61C1343.49 438.71 1494.5 459.83 1636.73 501.46Z" />
					<path id="Path 333" class="shp311" d="M1636.73 501.63L1636.56 718.58L348.56 718.58C585.67 549.57 874.65 447.74 1187.89 441.86C1343.75 438.97 1494.58 460.08 1636.73 501.63Z" />
					<path id="Path 334" class="shp0" d="M1636.64 501.89C1494.67 460.25 1344.01 439.22 1188.32 442.12C875.41 447.99 586.78 549.74 349.84 718.58L1636.56 718.58L1636.64 501.89Z" />
				</g>
			</g>
		</g>
	</g>
</svg>