<?xml version="1.0" encoding="utf-8"?>
<!-- Generator: Adobe Illustrator 17.1.0, SVG Export Plug-In . SVG Version: 6.00 Build 0)  -->
<!DOCTYPE svg PUBLIC "-//W3C//DTD SVG 1.1//EN" "http://www.w3.org/Graphics/SVG/1.1/DTD/svg11.dtd">
<svg version="1.1" id="Calque_1" xmlns="http://www.w3.org/2000/svg" xmlns:xlink="http://www.w3.org/1999/xlink" x="0px" y="0px"
	 width="625px" height="250px" viewBox="0 74.9 625 250" enable-background="new 0 74.9 625 250" xml:space="preserve">
<g>
	<g>
		<g>
			<path fill="#35A8E0" d="M36.6,297.2l0.6-7.5c0.2-2,4.4-47.6,41.3-86c-21.9-16.6-37.5-44.4-47.8-84.8l-2.2-8.7l8.7,1.8
				c2.8,0.6,66,14.3,88.9,58.1c1.6-0.7,3.2-1.4,4.9-2.1c10.9-4.6,21.5-6.9,31.3-6.9c32.8,0,47,24.9,47.6,25.9l13,23.3l-21.3-16.2
				c-1.2-0.9-5-3.1-8.4-3.1c-1.6,0-3.6,0.4-5.6,3.3c-0.6,0.8-2.4,2.7-5.3,5.6c-18.3,17.8-33.5,25.7-49.2,25.7c-0.6,0-1.2,0-1.8,0
				C117,279.3,46.9,295,43.9,295.6L36.6,297.2z M88,210c-26.4,26.7-35.5,58.1-38.4,72.6c17.9-5.5,60.1-22.2,70.7-58.3
				c-9.3-2.4-18.6-7-29.4-12.7C89.9,211,88.9,210.5,88,210z M130.6,180.5c3.6,10.7,4.6,22.2,3,34.3c12.5-0.2,25.2-7.1,41.1-22.6
				c1.1-1.1,3.4-3.4,4-4.1c2.7-3.9,6.2-6.4,10.2-7.4c-6.1-4.4-14.8-8.2-26.5-8.2c-8.4,0-17.5,2-27,6
				C133.8,179.1,132.2,179.8,130.6,180.5z M96.6,202c9.7,5.1,18.1,9.2,25.9,11.3c1.3-9.8,0.7-19.1-2-27.8
				C111.9,190.2,103.9,195.8,96.6,202z M44,125.4c9.8,33.7,23.8,56.8,42.6,70.4c8.9-7.9,18.8-14.9,29.6-20.7
				C100.4,145.4,61.7,130.8,44,125.4z"/>
		</g>
	</g>
	<g>
		<path fill="#3F3F3E" d="M244.5,160.9h14.7V196h0.7l34.3-35.1h19.9l-38.7,38.3l41.3,44.6H296L260.1,203h-0.8v40.7h-14.7V160.9z"/>
		<path fill="#3F3F3E" d="M345.3,186.2c17,0,30.6,11.8,30.6,29.5s-13.6,29.5-30.6,29.5s-30.5-11.8-30.5-29.5
			S328.3,186.2,345.3,186.2z M345.3,232.5c10.3,0,16.5-8.1,16.5-16.9c0-8.8-6.2-16.9-16.5-16.9s-16.5,8.1-16.5,16.9
			C328.8,224.5,335,232.5,345.3,232.5z"/>
		<path fill="#3F3F3E" d="M385.8,155.3h14v88.5h-14V155.3z"/>
		<path fill="#3F3F3E" d="M448.2,236h-0.4c-4,6.3-10.5,9.1-18,9.1c-10.4,0-20.5-5.7-20.5-16.9c0-18.3,21.3-19.5,35.3-19.5h3.5v-1.5
			c0-6.9-5.4-10.5-12.9-10.5c-5.9,0-11.2,2.3-15,5.9l-7.4-7.4c6.2-6.3,15-9,23.9-9c24,0,24,17.3,24,25.3v32.3h-12.6V236z
			 M447.4,218.6h-2.9c-7.7,0-21.1,0.6-21.1,8.7c0,5.2,5.3,7.4,9.8,7.4c9.6,0,14.2-5,14.2-12.9V218.6z"/>
		<path fill="#3F3F3E" d="M470.1,155.3h14v39.4h0.4c2.9-3.6,8.5-8.5,19.1-8.5c16,0,27.2,12.9,27.2,29.5s-10.4,29.5-27.7,29.5
			c-7.8,0-15.2-3-19.3-9.8h-0.2v8.4h-13.3V155.3z M500.2,198.8c-10.3,0-16.5,8.1-16.5,16.9c0,8.8,6.2,16.9,16.5,16.9
			s16.5-8.1,16.5-16.9C516.7,206.9,510.5,198.8,500.2,198.8z"/>
		<path fill="#3F3F3E" d="M540.5,187.6h14v8.9h0.2c3-6.4,9.2-10.3,16.6-10.3c1.8,0,3.4,0.4,5,0.8v13.6c-2.3-0.6-4.6-1.1-6.8-1.1
			c-13.2,0-15.1,11.1-15.1,14.2v30.1h-14V187.6z"/>
		<path fill="#3F3F3E" d="M592.9,160.1c5.2,0,9.1,3.6,9.1,8.4c0,4.8-4,8.4-9.1,8.4c-5.2,0-8.9-4-8.9-8.4
			C584,164.1,587.7,160.1,592.9,160.1z M586,187.6h14v56.2h-14V187.6z"/>
	</g>
</g>
</svg>
